<svg width="200" height="200" viewBox="0 0 200 200" fill="none" xmlns="http://www.w3.org/2000/svg">
<g clip-path="url(#clip0_12_1364)">
<path d="M36.6668 5.00037H163.334C183.542 5.00037 200 21.4586 200 41.6672V163.334C200 183.542 183.542 200.001 163.334 200.001H36.6668C16.4586 200.001 0 183.543 0 163.334V41.6672C0.000390625 21.4586 16.4586 5.00037 36.6668 5.00037Z" fill="#FF7C00"/>
<path d="M38.3333 13.3336H161.666C178.333 13.3336 191.666 26.6668 191.666 43.3336V161.667C191.666 178.334 178.333 191.667 161.666 191.667H38.3333C21.6665 191.667 8.33325 178.334 8.33325 161.667V43.3336C8.33325 26.6672 21.6665 13.3336 38.3333 13.3336Z" fill="#261300"/>
<path d="M92.912 59.4797C92.5882 58.8316 92.5882 58.8316 91.9401 58.8316H75.0936C74.7698 58.8316 74.4456 58.8316 74.4456 59.4797C74.5374 61.7664 74.3194 64.0547 73.7975 66.2832L50.796 146.951C50.4721 147.923 50.796 148.247 51.444 148.247H63.4307C64.4026 148.247 64.7264 147.923 64.7264 147.275L71.2057 122.977H96.7991L103.602 147.275C103.926 147.923 104.25 147.923 104.898 147.923H118.181C118.829 147.923 118.829 147.599 118.829 146.951L92.912 59.4797ZM74.7698 110.018C78.0905 97.3836 82.5452 81.1852 84.1647 71.7902C86.1085 81.5094 91.6159 100.947 93.8839 110.018H74.7698ZM130.168 64.9871C130.167 60.3352 133.938 56.5633 138.59 56.5625C143.242 56.5617 147.014 60.3324 147.015 64.9844C147.015 64.9852 147.015 64.9863 147.015 64.9871C147.364 69.2895 144.16 73.0605 139.858 73.4102C139.436 73.4445 139.013 73.4445 138.591 73.4102C133.732 73.0863 130.168 70.1703 130.168 64.9871ZM131.14 83.4531C131.067 82.9891 131.385 82.5539 131.848 82.4812C131.936 82.4676 132.024 82.4676 132.112 82.4812H144.747C145.211 82.4086 145.646 82.7258 145.719 83.1895C145.732 83.277 145.732 83.3656 145.719 83.4531V147.275C145.719 147.923 145.719 148.246 144.747 148.246H132.112C131.648 148.319 131.213 148.002 131.14 147.538C131.126 147.451 131.126 147.362 131.14 147.275V83.4531Z" fill="white"/>
<path opacity="0.15" d="M92.912 59.4797C92.5882 58.8316 92.5882 58.8316 91.9401 58.8316H75.0936C74.7698 58.8316 74.4456 58.8316 74.4456 59.4797C74.5374 61.7664 74.3194 64.0547 73.7975 66.2832L50.796 146.951C50.4721 147.923 50.796 148.247 51.444 148.247H63.4307C64.4026 148.247 64.7264 147.923 64.7264 147.275L71.2057 122.977H96.7991L103.602 147.275C103.926 147.923 104.25 147.923 104.898 147.923H118.181C118.829 147.923 118.829 147.599 118.829 146.951L92.912 59.4797ZM74.7698 110.018C78.0905 97.3836 82.5452 81.1852 84.1647 71.7902C86.1085 81.5094 91.6159 100.947 93.8839 110.018H74.7698ZM130.168 64.9871C130.167 60.3352 133.938 56.5633 138.59 56.5625C143.242 56.5617 147.014 60.3324 147.015 64.9844C147.015 64.9852 147.015 64.9863 147.015 64.9871C147.364 69.2895 144.16 73.0605 139.858 73.4102C139.436 73.4445 139.013 73.4445 138.591 73.4102C133.732 73.0863 130.168 70.1703 130.168 64.9871ZM131.14 83.4531C131.067 82.9891 131.385 82.5539 131.848 82.4812C131.936 82.4676 132.024 82.4676 132.112 82.4812H144.747C145.211 82.4086 145.646 82.7258 145.719 83.1895C145.732 83.277 145.732 83.3656 145.719 83.4531V147.275C145.719 147.923 145.719 148.246 144.747 148.246H132.112C131.648 148.319 131.213 148.002 131.14 147.538C131.126 147.451 131.126 147.362 131.14 147.275V83.4531Z" fill="#FF7C00"/>
</g>
<defs>
<clipPath id="clip0_12_1364">
<rect width="200" height="200" fill="white"/>
</clipPath>
</defs>
</svg>
