<svg width="200" height="200" viewBox="0 0 200 200" fill="none" xmlns="http://www.w3.org/2000/svg">
<path d="M160.938 9.375H39.0625C20.9407 9.375 6.25 24.0657 6.25 42.1875V157.812C6.25 175.934 20.9407 190.625 39.0625 190.625H160.938C179.059 190.625 193.75 175.934 193.75 157.812V42.1875C193.75 24.0657 179.059 9.375 160.938 9.375Z" fill="#470137"/>
<path d="M102.633 60.6563L79.5702 100.281L104.422 142.469C104.93 143.328 104.711 143.75 103.781 143.75H88.2812C87.8974 143.791 87.5103 143.715 87.1703 143.532C86.8303 143.35 86.5532 143.069 86.3749 142.727L68.8827 110.641H68.7499L51.7187 142.727C51.5621 143.032 51.325 143.289 51.0331 143.469C50.7412 143.649 50.4055 143.747 50.0624 143.75H35.1562C34.3046 143.75 34.1405 143.328 34.6483 142.469L59.0858 101.438L35.8046 60.3985C35.2968 59.7188 35.4687 59.3751 36.3124 59.3751H51.8437C52.1767 59.3512 52.5096 59.4231 52.803 59.5823C53.0965 59.7415 53.3383 59.9813 53.4999 60.2735L69.9062 91.9766H70.0312L86.3515 60.2735C86.5125 59.9826 86.7531 59.7436 87.045 59.5845C87.337 59.4254 87.6682 59.3527 87.9999 59.3751H102.125C103.062 59.3751 103.226 59.8047 102.633 60.6563ZM140.523 145.313C131.461 145.313 124.484 142.742 119.07 137.609C113.656 132.477 110.937 124.891 110.937 114.844C110.937 105.714 113.849 98.2136 119.672 92.3438C122.651 89.2599 126.234 86.8223 130.196 85.1825C134.158 83.5428 138.416 82.7361 142.703 82.8126C144.622 82.7784 146.538 82.9831 148.406 83.4219V56.9844C148.392 56.8854 148.401 56.7844 148.432 56.6894C148.464 56.5944 148.517 56.508 148.587 56.4369C148.658 56.3658 148.743 56.3119 148.838 56.2795C148.933 56.2471 149.034 56.237 149.133 56.2501H163.414C163.812 56.2501 164.016 56.4922 164.016 56.9844V131.008C164.016 134.133 165.367 136.797 165.578 139.078C165.621 139.304 165.584 139.538 165.472 139.739C165.361 139.94 165.183 140.096 164.969 140.18C157.961 143.602 148.773 145.313 140.523 145.313ZM148.437 133.211V95.4219C147.93 94.5313 145.242 93.7501 142.492 93.7501C140.216 93.691 137.956 94.1409 135.875 95.0667C133.795 95.9925 131.948 97.371 130.469 99.1016C126.865 103.322 124.921 108.709 125 114.258C125 121.102 127.344 125.789 130.398 129.047C131.842 130.703 133.621 132.034 135.616 132.952C137.612 133.87 139.78 134.355 141.976 134.375C144.891 134.375 147.742 133.938 148.437 133.211Z" fill="#FF61F6"/>
</svg>
