<svg width="400" height="400" viewBox="0 0 400 400" fill="none" xmlns="http://www.w3.org/2000/svg">
<g clip-path="url(#clip0_9_1265)">
<path d="M399.883 0H0.117188C0.0524666 0 0 0.0524666 0 0.117188V399.883C0 399.948 0.0524666 400 0.117188 400H399.883C399.948 400 400 399.948 400 399.883V0.117188C400 0.0524666 399.948 0 399.883 0Z" fill="white"/>
<path d="M231.25 176.562H264.062ZM192.188 176.562H225ZM153.906 176.562H186.719ZM115.625 176.562H147.656ZM76.5625 176.562H109.375ZM115.625 140.625H147.656ZM153.906 140.625H186.719ZM192.188 140.625H225ZM192.188 104.688H225Z" fill="black"/>
<path d="M231.25 176.562H264.062M192.188 176.562H225M153.906 176.562H186.719M115.625 176.562H147.656M76.5625 176.562H109.375M115.625 140.625H147.656M153.906 140.625H186.719M192.188 140.625H225M192.188 104.688H225" stroke="#066DA5" stroke-width="38"/>
<path d="M368.75 178.125C368.75 178.125 354.687 164.844 325.781 169.531C322.656 146.875 298.437 133.594 298.437 133.594C298.437 133.594 275.781 160.938 292.187 191.406C287.5 193.75 279.687 196.875 267.969 196.875H53.125C49.2187 211.719 49.2187 310.156 157.031 310.156C234.375 310.156 292.187 274.219 319.531 208.594C360.156 211.719 368.75 178.125 368.75 178.125Z" fill="#066DA5"/>
</g>
<defs>
<clipPath id="clip0_9_1265">
<rect width="400" height="400" fill="white"/>
</clipPath>
</defs>
</svg>
