<svg width="200" height="200" viewBox="0 0 200 200" fill="none" xmlns="http://www.w3.org/2000/svg">
<path d="M66.6666 200C85.0666 200 99.9999 185.067 99.9999 166.667V133.333H66.6666C48.2666 133.333 33.3333 148.267 33.3333 166.667C33.3333 185.067 48.2666 200 66.6666 200Z" fill="#0ACF83"/>
<path d="M33.3333 100C33.3333 81.6 48.2666 66.6666 66.6666 66.6666H99.9999V133.333H66.6666C48.2666 133.333 33.3333 118.4 33.3333 100Z" fill="#A259FF"/>
<path d="M33.3333 33.3333C33.3333 14.9333 48.2666 0 66.6666 0H99.9999V66.6667H66.6666C48.2666 66.6667 33.3333 51.7333 33.3333 33.3333Z" fill="#F24E1E"/>
<path d="M100 0H133.333C151.733 0 166.667 14.9333 166.667 33.3333C166.667 51.7333 151.733 66.6667 133.333 66.6667H100V0Z" fill="#FF7262"/>
<path d="M166.667 100C166.667 118.4 151.733 133.333 133.333 133.333C114.933 133.333 100 118.4 100 100C100 81.6 114.933 66.6666 133.333 66.6666C151.733 66.6666 166.667 81.6 166.667 100Z" fill="#1ABCFE"/>
</svg>
