<svg width="200" height="200" viewBox="0 0 200 200" fill="none" xmlns="http://www.w3.org/2000/svg">
<path d="M194.902 91.2156L108.783 5.10002C103.827 0.140649 95.7828 0.140649 90.8187 5.10002L72.9375 22.9844L95.6219 45.6688C100.895 43.8891 106.939 45.0828 111.141 49.2844C115.364 53.5125 116.548 59.6078 114.725 64.8985L136.587 86.7625C141.877 84.9391 147.981 86.1172 152.203 90.3485C158.109 96.25 158.109 105.817 152.203 111.722C146.297 117.628 136.733 117.628 130.823 111.722C126.383 107.278 125.284 100.755 127.534 95.2828L107.147 74.8953L107.144 128.553C108.584 129.264 109.942 130.214 111.142 131.409C117.045 137.311 117.045 146.875 111.142 152.789C105.237 158.691 95.6672 158.691 89.7687 152.789C83.8656 146.877 83.8656 137.313 89.7687 131.409C91.2281 129.952 92.9156 128.85 94.7172 128.113V73.9578C92.9156 73.2203 91.2312 72.1266 89.7687 70.6594C85.2968 66.1907 84.2203 59.6282 86.514 54.1344L64.15 31.7703L5.09998 90.8172C0.139038 95.7813 0.139038 103.825 5.09998 108.786L91.2203 194.902C96.1797 199.861 104.22 199.861 109.187 194.902L194.903 109.186C199.862 104.223 199.862 96.175 194.902 91.2156V91.2156Z" fill="#F34F29"/>
</svg>
