<svg width="200" height="200" viewBox="0 0 200 200" fill="none" xmlns="http://www.w3.org/2000/svg">
<path d="M178.125 21.7187C178.125 11.4062 169.844 3.125 159.531 3.125H40.4687C30.1562 3.125 21.875 11.4062 21.875 21.7187V178.437C21.875 188.75 30.1562 197.031 40.4687 197.031H159.687C170 197.031 178.281 188.75 178.281 178.437V21.7187H178.125ZM171.875 21.875V177.031C171.875 184.375 166.406 190.625 159.063 190.625H41.4062C34.0625 190.625 28.125 184.375 28.125 177.031V21.875C28.125 14.5313 34.2188 9.375 41.4062 9.375H158.906C166.25 9.375 172.031 15 172.031 22.3438L171.875 21.875V21.875ZM57.8125 169.844L79.8437 147.812L57.8125 125.781V169.844ZM79.6875 74.6875V28.75L57.9687 28.9062C57.9687 28.9062 58.125 100.625 58.2812 100.312C125.156 74.2187 120.312 92.8125 120.312 92.8125V170L120.156 170.312H140.625V92.9688C140.625 50.625 79.6875 74.6875 79.6875 74.6875V74.6875ZM109.375 56.25H132.5C145 40.625 149.219 29.6875 149.219 29.6875H125.312C125.312 29.6875 117.656 46.875 109.375 56.25Z" fill="#6762A6"/>
</svg>
