<svg width="110" height="55" viewBox="0 0 110 55" fill="none" xmlns="http://www.w3.org/2000/svg">
<path d="M3.14 54.6401C2.1 54.6401 1.4 54.4201 1.04 53.9801C0.68 53.5401 0.5 52.9801 0.5 52.3001C0.5 50.9801 1.06 49.5801 2.18 48.1001C3.26 46.6601 4.74 45.2401 6.62 43.8401C8.5 42.4401 10.6 41.1401 12.92 39.9401C15.2 38.7801 17.54 37.8401 19.94 37.1201C22.06 36.4801 24.12 35.8801 26.12 35.3201C28.16 34.7601 30.02 34.2401 31.7 33.7601C33.42 33.2401 34.8 32.7601 35.84 32.3201C36.4 32.0801 36.68 32.0601 36.68 32.2601C36.68 32.4201 36.56 32.5601 36.32 32.6801C35.28 33.2001 34.02 33.7001 32.54 34.1801C31.06 34.6601 29.5 35.1401 27.86 35.6201C26.26 36.0601 24.7 36.5201 23.18 37.0001C21.66 37.4401 20.32 37.8801 19.16 38.3201C17.72 38.8801 16.18 39.6201 14.54 40.5401C12.9 41.4601 11.3 42.4601 9.74 43.5401C8.18 44.6601 6.76 45.7801 5.48 46.9001C4.16 48.0201 3.12 49.0601 2.36 50.0201C1.6 51.0201 1.22 51.8601 1.22 52.5401C1.22 53.1001 1.4 53.4801 1.76 53.6801C2.08 53.8801 2.44 53.9801 2.84 53.9801C4.2 53.9801 5.74 53.3801 7.46 52.1801C9.18 50.9801 11 49.4001 12.92 47.4401C14.8 45.4801 16.7 43.3001 18.62 40.9001C20.58 38.5001 22.46 36.1001 24.26 33.7001C26.06 31.3001 27.7 29.0601 29.18 26.9801C30.66 24.9001 31.88 23.2001 32.84 21.8801C34.4 19.7601 36.08 17.7201 37.88 15.7601C39.72 13.7601 41.64 12.0001 43.64 10.4801C45.64 8.92013 47.7 7.70014 49.82 6.82014C51.94 5.90014 54.08 5.44014 56.24 5.44014C56.92 5.44014 57.24 5.58014 57.2 5.86013C57.2 6.10014 56.78 6.22014 55.94 6.22014C55.62 6.22014 55.02 6.20014 54.14 6.16014C53.26 6.08014 52.38 6.02014 51.5 5.98014C50.66 5.94014 50.04 5.92014 49.64 5.92014C47.84 5.92014 45.86 6.30014 43.7 7.06014C41.54 7.82014 39.38 8.86014 37.22 10.1801C35.1 11.4601 33.14 12.9001 31.34 14.5001C29.54 16.1001 28.1 17.7401 27.02 19.4201C25.94 21.1001 25.4 22.7001 25.4 24.2201C25.4 25.0601 25.5 25.9001 25.7 26.7401C25.94 27.5801 26.4 28.2801 27.08 28.8401C27.76 29.3601 28.8 29.6201 30.2 29.6201C31.48 29.6201 32.84 29.3001 34.28 28.6601C35.72 27.9801 37.14 27.0801 38.54 25.9601C39.98 24.8401 41.26 23.5801 42.38 22.1801C43.54 20.7801 44.44 19.3601 45.08 17.9201C45.76 16.4401 46.06 15.0401 45.98 13.7201C45.94 13.1601 46.02 12.8601 46.22 12.8201C46.46 12.7401 46.6 12.9601 46.64 13.4801C46.88 15.3601 46.52 17.2801 45.56 19.2401C44.64 21.2001 43.36 23.0201 41.72 24.7001C40.08 26.3401 38.24 27.6801 36.2 28.7201C34.2 29.7201 32.24 30.2201 30.32 30.2201C28.36 30.2201 26.86 29.6201 25.82 28.4201C24.78 27.1801 24.26 25.5601 24.26 23.5601C24.26 21.6801 24.72 19.8601 25.64 18.1001C26.56 16.3001 27.84 14.6401 29.48 13.1201C31.12 11.5601 33 10.2001 35.12 9.04014C37.28 7.88014 39.56 6.98013 41.96 6.34013C44.4 5.66014 46.88 5.32014 49.4 5.32014C50.36 5.32014 51.36 5.38014 52.4 5.50013C53.48 5.58014 54.38 5.62014 55.1 5.62014C55.54 5.62014 55.72 5.68014 55.64 5.80013C55.56 5.92014 55.42 6.00014 55.22 6.04014C52.94 6.40014 50.88 7.14014 49.04 8.26014C47.24 9.38014 45.56 10.7601 44 12.4001C42.44 14.0401 40.94 15.8401 39.5 17.8001C38.06 19.7601 36.56 21.7801 35 23.8601C34.12 25.0601 32.96 26.6401 31.52 28.6001C30.08 30.5601 28.44 32.7001 26.6 35.0201C24.8 37.3401 22.88 39.6401 20.84 41.9201C18.84 44.2401 16.8 46.3601 14.72 48.2801C12.64 50.2001 10.62 51.7401 8.66 52.9001C6.66 54.0601 4.82 54.6401 3.14 54.6401Z" fill="black"/>
<path d="M58.3292 21.7001C60.3292 21.7001 61.3292 22.6601 61.3292 24.5801C61.3292 26.0601 60.9892 27.5801 60.3092 29.1401C59.6292 30.6601 58.7092 32.0601 57.5492 33.3401C56.3892 34.5801 55.1292 35.6001 53.7692 36.4001C52.4092 37.1601 51.0292 37.5401 49.6292 37.5401C48.5492 37.5401 47.6492 37.2801 46.9292 36.7601C46.1692 36.2001 45.7892 35.3001 45.7892 34.0601C45.7892 32.9001 46.1292 31.6201 46.8092 30.2201C47.4892 28.7801 48.4092 27.4201 49.5692 26.1401C50.7692 24.8601 52.1092 23.8001 53.5892 22.9601C55.1092 22.1201 56.6892 21.7001 58.3292 21.7001ZM58.9892 22.5401C58.3092 22.5401 57.5092 22.8401 56.5892 23.4401C55.6692 24.0401 54.7292 24.8201 53.7692 25.7801C52.8092 26.7401 51.9092 27.7801 51.0692 28.9001C50.2692 29.9801 49.6092 31.0401 49.0892 32.0801C48.6092 33.1201 48.3692 34.0001 48.3692 34.7201C48.3692 35.5201 48.5892 36.0801 49.0292 36.4001C49.4692 36.6801 49.9692 36.8201 50.5292 36.8201C51.4492 36.8201 52.4892 36.4401 53.6492 35.6801C54.8092 34.8801 55.9292 33.8801 57.0092 32.6801C58.0892 31.4801 58.9692 30.2201 59.6492 28.9001C60.3692 27.5401 60.7292 26.3001 60.7292 25.1801C60.7292 24.1401 60.5492 23.4401 60.1892 23.0801C59.8292 22.7201 59.4292 22.5401 58.9892 22.5401ZM60.0692 28.7201C60.2692 28.7201 60.3492 28.8001 60.3092 28.9601C60.3092 29.0801 60.2092 29.1401 60.0092 29.1401C59.8492 29.1401 59.6092 29.3601 59.2892 29.8001C59.0092 30.2001 58.7492 30.6201 58.5092 31.0601C58.2692 31.5001 58.1492 31.7401 58.1492 31.7801C58.1492 32.7001 58.4892 33.1601 59.1692 33.1601C59.8092 33.1601 60.5292 32.8601 61.3292 32.2601C62.1692 31.6601 62.9692 30.9801 63.7292 30.2201C64.5292 29.4201 65.1692 28.7201 65.6492 28.1201L66.1292 28.5401C65.6092 29.1401 64.9492 29.8601 64.1492 30.7001C63.3492 31.5001 62.5092 32.2201 61.6292 32.8601C60.7492 33.4601 59.9292 33.7601 59.1692 33.7601C58.5292 33.7601 58.0892 33.6201 57.8492 33.3401C57.6092 33.0601 57.4892 32.5601 57.4892 31.8401C57.4892 30.8801 57.8092 30.1201 58.4492 29.5601C59.1292 29.0001 59.6692 28.7201 60.0692 28.7201Z" fill="black"/>
<path d="M71.4059 37.5401C69.5259 37.5401 68.2859 37.1201 67.6859 36.2801C67.0859 35.4001 66.7859 34.4801 66.7859 33.5201C66.7859 31.8801 67.2059 30.3601 68.0459 28.9601C68.8859 27.5201 69.9659 26.2401 71.2859 25.1201C72.6059 24.0001 73.9659 23.1401 75.3659 22.5401C76.8059 21.9001 78.0859 21.5801 79.2059 21.5801C80.0059 21.5801 80.6459 21.7001 81.1259 21.9401C81.6059 22.1401 81.8459 22.5801 81.8459 23.2601C81.8459 23.9001 81.4659 24.5801 80.7059 25.3001C79.9459 26.0201 78.9859 26.7201 77.8259 27.4001C76.6659 28.0401 75.4459 28.6401 74.1659 29.2001C72.9259 29.7201 71.7859 30.1401 70.7459 30.4601C69.7059 30.7801 68.9459 30.9401 68.4659 30.9401C68.4659 30.9401 68.4659 30.8401 68.4659 30.6401C68.4659 30.4001 68.4659 30.2801 68.4659 30.2801C68.8259 30.3201 69.4459 30.2001 70.3259 29.9201C71.2459 29.6401 72.2659 29.2801 73.3859 28.8401C74.5059 28.3601 75.5859 27.8201 76.6259 27.2201C77.7059 26.6201 78.5859 25.9801 79.2659 25.3001C79.9859 24.6201 80.3459 23.9601 80.3459 23.3201C80.3459 23.0001 80.2459 22.7201 80.0459 22.4801C79.8859 22.2401 79.5859 22.1201 79.1459 22.1201C78.5059 22.1201 77.7259 22.4401 76.8059 23.0801C75.9259 23.6801 75.0259 24.4801 74.1059 25.4801C73.1859 26.4801 72.3259 27.5401 71.5259 28.6601C70.7259 29.7801 70.0659 30.8601 69.5459 31.9001C69.0659 32.9001 68.8259 33.7401 68.8259 34.4201C68.8259 35.2201 69.0659 35.8201 69.5459 36.2201C70.0259 36.6201 70.7259 36.8201 71.6459 36.8201C73.2459 36.8201 74.7459 36.4401 76.1459 35.6801C77.5859 34.8801 78.8859 33.9601 80.0459 32.9201C81.2059 31.8401 82.1859 30.8401 82.9859 29.9201C83.7859 28.9601 84.3259 28.3401 84.6059 28.0601C84.6059 28.0601 84.6659 28.1201 84.7859 28.2401C84.9459 28.3601 85.0259 28.4201 85.0259 28.4201C84.7459 28.7401 84.2059 29.3801 83.4059 30.3401C82.6059 31.3001 81.6059 32.3401 80.4059 33.4601C79.2059 34.5801 77.8459 35.5401 76.3259 36.3401C74.8059 37.1401 73.1659 37.5401 71.4059 37.5401Z" fill="black"/>
<path d="M106.665 0.640137C107.105 0.720136 107.645 0.760135 108.285 0.760135C108.965 0.760135 109.505 0.720136 109.905 0.640137L89.0248 29.7401C88.3848 30.7001 87.7648 31.6001 87.1648 32.4401C86.5648 33.2801 86.0848 34.0201 85.7248 34.6601C85.3248 35.2601 85.1248 35.7401 85.1248 36.1001C85.1248 36.3801 85.2448 36.5801 85.4848 36.7001C85.6848 36.8201 85.9848 36.8801 86.3848 36.8801C87.3048 36.8801 88.3248 36.5601 89.4448 35.9201C90.5648 35.2401 91.6648 34.4001 92.7448 33.4001C93.8648 32.4001 94.8848 31.4201 95.8048 30.4601C96.7648 29.5001 97.5248 28.7201 98.0848 28.1201L98.5048 28.4801C97.9848 29.0401 97.2648 29.8201 96.3448 30.8201C95.4248 31.8201 94.3648 32.8401 93.1648 33.8801C92.0048 34.8801 90.7848 35.7401 89.5048 36.4601C88.2648 37.1801 87.0448 37.5401 85.8448 37.5401C85.2048 37.5401 84.6648 37.3601 84.2248 37.0001C83.7448 36.6401 83.5048 36.1201 83.5048 35.4401C83.5048 35.0001 83.6648 34.4401 83.9848 33.7601C84.3048 33.0801 84.7048 32.3801 85.1848 31.6601C85.6248 30.9001 86.0648 30.2201 86.5048 29.6201C86.9048 28.9801 87.2248 28.5001 87.4648 28.1801L106.665 0.640137Z" fill="black"/>
</svg>
