<svg width="415" height="393" viewBox="0 0 415 393" fill="none" xmlns="http://www.w3.org/2000/svg">
<path d="M0 285C4.51518 295.311 9.39885 305.002 14.6153 314H369.385C374.601 305.002 379.485 295.311 384 285H0Z" fill="#646185"/>
<path d="M185.16 187.8V290.36H257.01V187.8C257.011 187.062 256.776 186.344 256.338 185.75C255.901 185.156 255.285 184.718 254.58 184.5C254.248 184.39 253.9 184.336 253.55 184.34H188.63C188.175 184.339 187.724 184.428 187.303 184.601C186.883 184.775 186.5 185.029 186.178 185.351C185.856 185.672 185.6 186.054 185.425 186.474C185.251 186.894 185.16 187.345 185.16 187.8ZM213.2 223.04C213.219 221.018 214.035 219.085 215.471 217.662C216.908 216.239 218.848 215.441 220.87 215.441C222.892 215.441 224.832 216.239 226.268 217.662C227.705 219.085 228.521 221.018 228.54 223.04V234.94C228.53 236.967 227.717 238.908 226.28 240.338C224.842 241.768 222.897 242.571 220.87 242.571C218.843 242.571 216.898 241.768 215.46 240.338C214.023 238.908 213.21 236.967 213.2 234.94V223.04Z" fill="#2F2E41"/>
<path d="M184.94 287.08V296.97C184.942 297.482 185.145 297.973 185.506 298.336C185.868 298.7 186.358 298.906 186.87 298.91H255.3C255.813 298.907 256.304 298.702 256.665 298.338C257.027 297.975 257.23 297.483 257.23 296.97V287.08H184.94Z" fill="#3F3D56"/>
<path d="M72.13 33.28V220.54C72.1319 222.926 73.0807 225.214 74.7681 226.902C76.4555 228.589 78.7436 229.538 81.13 229.54H358.63C361.016 229.538 363.304 228.589 364.992 226.902C366.679 225.214 367.628 222.926 367.63 220.54V33.28C367.624 30.8957 366.674 28.6109 364.987 26.9259C363.3 25.2409 361.014 24.293 358.63 24.29H81.13C78.7457 24.293 76.4598 25.2409 74.7729 26.9259C73.086 28.6109 72.1357 30.8957 72.13 33.28V33.28Z" fill="#3F3D56"/>
<path d="M78.64 35.61V218.23C78.6422 219.505 79.1496 220.727 80.0512 221.629C80.9528 222.53 82.175 223.038 83.45 223.04H356.32C357.595 223.038 358.817 222.53 359.719 221.629C360.62 220.727 361.128 219.505 361.13 218.23V35.61C361.13 34.3334 360.623 33.109 359.722 32.2054C358.82 31.3018 357.597 30.7928 356.32 30.79H83.45C82.1734 30.7928 80.9501 31.3018 80.0483 32.2054C79.1466 33.1091 78.6401 34.3334 78.64 35.61V35.61Z" fill="#6C63FF"/>
<path d="M134.28 301.24C134.558 301.588 134.911 301.869 135.313 302.061C135.714 302.254 136.155 302.352 136.6 302.35H298.94C299.384 302.349 299.822 302.25 300.223 302.059C300.624 301.867 300.977 301.589 301.256 301.245C301.536 300.9 301.735 300.497 301.84 300.065C301.944 299.634 301.951 299.185 301.86 298.75L299.34 286.78C299.236 286.292 299.011 285.838 298.686 285.459C298.361 285.08 297.946 284.788 297.48 284.61C297.142 284.477 296.783 284.41 296.42 284.41H139.11C138.747 284.41 138.388 284.477 138.05 284.61C137.584 284.788 137.169 285.08 136.844 285.459C136.519 285.838 136.294 286.292 136.19 286.78L133.67 298.75C133.58 299.184 133.589 299.633 133.694 300.064C133.8 300.495 134 300.896 134.28 301.24Z" fill="#2F2E41"/>
<path d="M290.755 289.566H294.779C295.048 289.566 295.267 289.347 295.267 289.078V287.054C295.267 286.784 295.048 286.566 294.779 286.566H290.755C290.486 286.566 290.267 286.784 290.267 287.054V289.078C290.267 289.347 290.486 289.566 290.755 289.566Z" fill="#3F3D56"/>
<path d="M280.755 289.566H284.779C285.048 289.566 285.267 289.347 285.267 289.078V287.054C285.267 286.784 285.048 286.566 284.779 286.566H280.755C280.486 286.566 280.267 286.784 280.267 287.054V289.078C280.267 289.347 280.486 289.566 280.755 289.566Z" fill="#3F3D56"/>
<path d="M270.755 289.566H274.779C275.048 289.566 275.267 289.347 275.267 289.078V287.054C275.267 286.784 275.048 286.566 274.779 286.566H270.755C270.486 286.566 270.267 286.784 270.267 287.054V289.078C270.267 289.347 270.486 289.566 270.755 289.566Z" fill="#3F3D56"/>
<path d="M260.755 289.566H264.779C265.048 289.566 265.267 289.347 265.267 289.078V287.054C265.267 286.784 265.048 286.566 264.779 286.566H260.755C260.486 286.566 260.267 286.784 260.267 287.054V289.078C260.267 289.347 260.486 289.566 260.755 289.566Z" fill="#3F3D56"/>
<path d="M250.755 289.566H254.779C255.048 289.566 255.267 289.347 255.267 289.078V287.054C255.267 286.784 255.048 286.566 254.779 286.566H250.755C250.486 286.566 250.267 286.784 250.267 287.054V289.078C250.267 289.347 250.486 289.566 250.755 289.566Z" fill="#3F3D56"/>
<path d="M240.755 289.566H244.779C245.048 289.566 245.267 289.347 245.267 289.078V287.054C245.267 286.784 245.048 286.566 244.779 286.566H240.755C240.486 286.566 240.267 286.784 240.267 287.054V289.078C240.267 289.347 240.486 289.566 240.755 289.566Z" fill="#3F3D56"/>
<path d="M230.755 289.566H234.779C235.048 289.566 235.267 289.347 235.267 289.078V287.054C235.267 286.784 235.048 286.566 234.779 286.566H230.755C230.486 286.566 230.267 286.784 230.267 287.054V289.078C230.267 289.347 230.486 289.566 230.755 289.566Z" fill="#3F3D56"/>
<path d="M220.755 289.566H224.779C225.048 289.566 225.267 289.347 225.267 289.078V287.054C225.267 286.784 225.048 286.566 224.779 286.566H220.755C220.486 286.566 220.267 286.784 220.267 287.054V289.078C220.267 289.347 220.486 289.566 220.755 289.566Z" fill="#3F3D56"/>
<path d="M210.755 289.566H214.779C215.048 289.566 215.267 289.347 215.267 289.078V287.054C215.267 286.784 215.048 286.566 214.779 286.566H210.755C210.486 286.566 210.267 286.784 210.267 287.054V289.078C210.267 289.347 210.486 289.566 210.755 289.566Z" fill="#3F3D56"/>
<path d="M200.755 289.566H204.779C205.048 289.566 205.267 289.347 205.267 289.078V287.054C205.267 286.784 205.048 286.566 204.779 286.566H200.755C200.486 286.566 200.267 286.784 200.267 287.054V289.078C200.267 289.347 200.486 289.566 200.755 289.566Z" fill="#3F3D56"/>
<path d="M190.755 289.566H194.779C195.048 289.566 195.267 289.347 195.267 289.078V287.054C195.267 286.784 195.048 286.566 194.779 286.566H190.755C190.486 286.566 190.267 286.784 190.267 287.054V289.078C190.267 289.347 190.486 289.566 190.755 289.566Z" fill="#3F3D56"/>
<path d="M180.755 289.566H184.779C185.048 289.566 185.267 289.347 185.267 289.078V287.054C185.267 286.784 185.048 286.566 184.779 286.566H180.755C180.486 286.566 180.267 286.784 180.267 287.054V289.078C180.267 289.347 180.486 289.566 180.755 289.566Z" fill="#3F3D56"/>
<path d="M170.755 289.566H174.779C175.048 289.566 175.267 289.347 175.267 289.078V287.054C175.267 286.784 175.048 286.566 174.779 286.566H170.755C170.486 286.566 170.267 286.784 170.267 287.054V289.078C170.267 289.347 170.486 289.566 170.755 289.566Z" fill="#3F3D56"/>
<path d="M160.755 289.566H164.779C165.048 289.566 165.267 289.347 165.267 289.078V287.054C165.267 286.784 165.048 286.566 164.779 286.566H160.755C160.486 286.566 160.267 286.784 160.267 287.054V289.078C160.267 289.347 160.486 289.566 160.755 289.566Z" fill="#3F3D56"/>
<path d="M150.755 289.566H154.779C155.048 289.566 155.267 289.347 155.267 289.078V287.054C155.267 286.784 155.048 286.566 154.779 286.566H150.755C150.486 286.566 150.267 286.784 150.267 287.054V289.078C150.267 289.347 150.486 289.566 150.755 289.566Z" fill="#3F3D56"/>
<path d="M140.755 289.566H144.779C145.048 289.566 145.267 289.347 145.267 289.078V287.054C145.267 286.784 145.048 286.566 144.779 286.566H140.755C140.486 286.566 140.267 286.784 140.267 287.054V289.078C140.267 289.347 140.486 289.566 140.755 289.566Z" fill="#3F3D56"/>
<path d="M290.873 294.566H294.897C295.167 294.566 295.385 294.347 295.385 294.078V292.054C295.385 291.784 295.167 291.566 294.897 291.566H290.873C290.604 291.566 290.385 291.784 290.385 292.054V294.078C290.385 294.347 290.604 294.566 290.873 294.566Z" fill="#3F3D56"/>
<path d="M280.873 294.566H284.897C285.167 294.566 285.385 294.347 285.385 294.078V292.054C285.385 291.784 285.167 291.566 284.897 291.566H280.873C280.604 291.566 280.385 291.784 280.385 292.054V294.078C280.385 294.347 280.604 294.566 280.873 294.566Z" fill="#3F3D56"/>
<path d="M270.873 294.566H274.897C275.167 294.566 275.385 294.347 275.385 294.078V292.054C275.385 291.784 275.167 291.566 274.897 291.566H270.873C270.604 291.566 270.385 291.784 270.385 292.054V294.078C270.385 294.347 270.604 294.566 270.873 294.566Z" fill="#3F3D56"/>
<path d="M260.873 294.566H264.897C265.167 294.566 265.385 294.347 265.385 294.078V292.054C265.385 291.784 265.167 291.566 264.897 291.566H260.873C260.604 291.566 260.385 291.784 260.385 292.054V294.078C260.385 294.347 260.604 294.566 260.873 294.566Z" fill="#3F3D56"/>
<path d="M250.873 294.566H254.897C255.167 294.566 255.385 294.347 255.385 294.078V292.054C255.385 291.784 255.167 291.566 254.897 291.566H250.873C250.604 291.566 250.385 291.784 250.385 292.054V294.078C250.385 294.347 250.604 294.566 250.873 294.566Z" fill="#3F3D56"/>
<path d="M240.873 294.566H244.897C245.167 294.566 245.385 294.347 245.385 294.078V292.054C245.385 291.784 245.167 291.566 244.897 291.566H240.873C240.604 291.566 240.385 291.784 240.385 292.054V294.078C240.385 294.347 240.604 294.566 240.873 294.566Z" fill="#3F3D56"/>
<path d="M230.873 294.566H234.897C235.167 294.566 235.385 294.347 235.385 294.078V292.054C235.385 291.784 235.167 291.566 234.897 291.566H230.873C230.604 291.566 230.385 291.784 230.385 292.054V294.078C230.385 294.347 230.604 294.566 230.873 294.566Z" fill="#3F3D56"/>
<path d="M220.873 294.566H224.897C225.167 294.566 225.385 294.347 225.385 294.078V292.054C225.385 291.784 225.167 291.566 224.897 291.566H220.873C220.604 291.566 220.385 291.784 220.385 292.054V294.078C220.385 294.347 220.604 294.566 220.873 294.566Z" fill="#3F3D56"/>
<path d="M210.873 294.566H214.897C215.167 294.566 215.385 294.347 215.385 294.078V292.054C215.385 291.784 215.167 291.566 214.897 291.566H210.873C210.604 291.566 210.385 291.784 210.385 292.054V294.078C210.385 294.347 210.604 294.566 210.873 294.566Z" fill="#3F3D56"/>
<path d="M200.873 294.566H204.897C205.167 294.566 205.385 294.347 205.385 294.078V292.054C205.385 291.784 205.167 291.566 204.897 291.566H200.873C200.604 291.566 200.385 291.784 200.385 292.054V294.078C200.385 294.347 200.604 294.566 200.873 294.566Z" fill="#3F3D56"/>
<path d="M190.873 294.566H194.897C195.167 294.566 195.385 294.347 195.385 294.078V292.054C195.385 291.784 195.167 291.566 194.897 291.566H190.873C190.604 291.566 190.385 291.784 190.385 292.054V294.078C190.385 294.347 190.604 294.566 190.873 294.566Z" fill="#3F3D56"/>
<path d="M180.873 294.566H184.897C185.167 294.566 185.385 294.347 185.385 294.078V292.054C185.385 291.784 185.167 291.566 184.897 291.566H180.873C180.604 291.566 180.385 291.784 180.385 292.054V294.078C180.385 294.347 180.604 294.566 180.873 294.566Z" fill="#3F3D56"/>
<path d="M170.873 294.566H174.897C175.167 294.566 175.385 294.347 175.385 294.078V292.054C175.385 291.784 175.167 291.566 174.897 291.566H170.873C170.604 291.566 170.385 291.784 170.385 292.054V294.078C170.385 294.347 170.604 294.566 170.873 294.566Z" fill="#3F3D56"/>
<path d="M160.873 294.566H164.897C165.167 294.566 165.385 294.347 165.385 294.078V292.054C165.385 291.784 165.167 291.566 164.897 291.566H160.873C160.604 291.566 160.385 291.784 160.385 292.054V294.078C160.385 294.347 160.604 294.566 160.873 294.566Z" fill="#3F3D56"/>
<path d="M150.873 294.566H154.897C155.167 294.566 155.385 294.347 155.385 294.078V292.054C155.385 291.784 155.167 291.566 154.897 291.566H150.873C150.604 291.566 150.385 291.784 150.385 292.054V294.078C150.385 294.347 150.604 294.566 150.873 294.566Z" fill="#3F3D56"/>
<path d="M140.873 294.566H144.897C145.167 294.566 145.385 294.347 145.385 294.078V292.054C145.385 291.784 145.167 291.566 144.897 291.566H140.873C140.604 291.566 140.385 291.784 140.385 292.054V294.078C140.385 294.347 140.604 294.566 140.873 294.566Z" fill="#3F3D56"/>
<path d="M207.873 300.566H246.897C247.167 300.566 247.385 300.347 247.385 300.078V298.054C247.385 297.784 247.167 297.566 246.897 297.566H207.873C207.604 297.566 207.385 297.784 207.385 298.054V300.078C207.385 300.347 207.604 300.566 207.873 300.566Z" fill="#3F3D56"/>
<path d="M97.1618 55.9467H352.485C352.751 55.9409 353.003 55.8313 353.189 55.6416C353.374 55.4518 353.479 55.1969 353.479 54.9314C353.479 54.6659 353.374 54.4109 353.189 54.2212C353.003 54.0314 352.751 53.9218 352.485 53.916H97.1618C96.8964 53.9218 96.6438 54.0314 96.4582 54.2212C96.2725 54.4109 96.1685 54.6659 96.1685 54.9314C96.1685 55.1969 96.2725 55.4518 96.4582 55.6416C96.6438 55.8313 96.8964 55.9409 97.1618 55.9467V55.9467Z" fill="#3F3D56"/>
<path d="M335.105 48.7319C338.391 48.7319 341.055 46.0084 341.055 42.6488C341.055 39.2893 338.391 36.5658 335.105 36.5658C331.819 36.5658 329.155 39.2893 329.155 42.6488C329.155 46.0084 331.819 48.7319 335.105 48.7319Z" fill="#F91783"/>
<path d="M314.549 48.7319C317.835 48.7319 320.499 46.0084 320.499 42.6488C320.499 39.2893 317.835 36.5658 314.549 36.5658C311.263 36.5658 308.599 39.2893 308.599 42.6488C308.599 46.0084 311.263 48.7319 314.549 48.7319Z" fill="#74FE71"/>
<path d="M293.993 48.7319C297.279 48.7319 299.943 46.0084 299.943 42.6488C299.943 39.2893 297.279 36.5658 293.993 36.5658C290.707 36.5658 288.043 39.2893 288.043 42.6488C288.043 46.0084 290.707 48.7319 293.993 48.7319Z" fill="#D91DD1"/>
<path d="M108.45 39.18C108.449 39.3238 108.477 39.4663 108.531 39.5995C108.586 39.7326 108.666 39.8537 108.767 39.9558C108.868 40.058 108.989 40.1392 109.121 40.1948C109.254 40.2504 109.396 40.2794 109.54 40.28H124.14C124.429 40.2733 124.703 40.1539 124.905 39.9474C125.107 39.7409 125.22 39.4637 125.22 39.175C125.22 38.8863 125.107 38.6091 124.905 38.4026C124.703 38.1961 124.429 38.0767 124.14 38.07H109.54C109.249 38.0735 108.97 38.1923 108.766 38.4002C108.562 38.6082 108.448 38.8885 108.45 39.18V39.18Z" fill="#3F3D56"/>
<path d="M108.45 43.33C108.449 43.4738 108.477 43.6164 108.531 43.7495C108.586 43.8826 108.666 44.0037 108.767 44.1058C108.868 44.208 108.989 44.2892 109.121 44.3448C109.254 44.4004 109.396 44.4294 109.54 44.43H124.14C124.429 44.4236 124.704 44.3044 124.906 44.0979C125.108 43.8913 125.221 43.6139 125.221 43.325C125.221 43.0361 125.108 42.7587 124.906 42.5522C124.704 42.3456 124.429 42.2264 124.14 42.22H109.54C109.249 42.2235 108.97 42.3423 108.766 42.5502C108.562 42.7582 108.448 43.0385 108.45 43.33V43.33Z" fill="#3F3D56"/>
<path d="M108.45 47.47C108.448 47.7615 108.562 48.0418 108.766 48.2498C108.97 48.4578 109.249 48.5765 109.54 48.58H124.14C124.429 48.5733 124.703 48.4539 124.905 48.2474C125.107 48.0409 125.22 47.7637 125.22 47.475C125.22 47.1863 125.107 46.9091 124.905 46.7026C124.703 46.4961 124.429 46.3767 124.14 46.37H109.54C109.396 46.3706 109.254 46.3996 109.121 46.4552C108.989 46.5108 108.868 46.592 108.767 46.6942C108.666 46.7963 108.586 46.9174 108.531 47.0505C108.477 47.1837 108.449 47.3262 108.45 47.47V47.47Z" fill="#3F3D56"/>
<path d="M112.962 79.5433H107.716C106.125 79.5433 104.836 80.8327 104.836 82.4232C104.836 84.0138 106.125 85.3032 107.716 85.3032H112.962C114.553 85.3032 115.842 84.0138 115.842 82.4232C115.842 80.8327 114.553 79.5433 112.962 79.5433Z" fill="#E6E6E6"/>
<path d="M172.962 79.5433H167.716C166.125 79.5433 164.836 80.8327 164.836 82.4232C164.836 84.0138 166.125 85.3032 167.716 85.3032H172.962C174.553 85.3032 175.842 84.0138 175.842 82.4232C175.842 80.8327 174.553 79.5433 172.962 79.5433Z" fill="#E6E6E6"/>
<path d="M189.962 79.5433H184.716C183.125 79.5433 181.836 80.8327 181.836 82.4232C181.836 84.0138 183.125 85.3032 184.716 85.3032H189.962C191.553 85.3032 192.842 84.0138 192.842 82.4232C192.842 80.8327 191.553 79.5433 189.962 79.5433Z" fill="#E6E6E6"/>
<path d="M156.642 79.0631H124.036C122.446 79.0631 121.156 80.3526 121.156 81.9431C121.156 83.5337 122.446 84.8231 124.036 84.8231H156.642C158.232 84.8231 159.522 83.5337 159.522 81.9431C159.522 80.3526 158.232 79.0631 156.642 79.0631Z" fill="#E6E6E6"/>
<path d="M236.642 79.0631H204.036C202.446 79.0631 201.156 80.3526 201.156 81.9431C201.156 83.5337 202.446 84.8231 204.036 84.8231H236.642C238.232 84.8231 239.522 83.5337 239.522 81.9431C239.522 80.3526 238.232 79.0631 236.642 79.0631Z" fill="#E6E6E6"/>
<path d="M128.962 92.5433H123.716C122.125 92.5433 120.836 93.8327 120.836 95.4232C120.836 97.0138 122.125 98.3032 123.716 98.3032H128.962C130.553 98.3032 131.842 97.0138 131.842 95.4232C131.842 93.8327 130.553 92.5433 128.962 92.5433Z" fill="#E6E6E6"/>
<path d="M188.962 92.5433H183.716C182.125 92.5433 180.836 93.8327 180.836 95.4232C180.836 97.0138 182.125 98.3032 183.716 98.3032H188.962C190.553 98.3032 191.842 97.0138 191.842 95.4232C191.842 93.8327 190.553 92.5433 188.962 92.5433Z" fill="#E6E6E6"/>
<path d="M205.962 92.5433H200.716C199.125 92.5433 197.836 93.8327 197.836 95.4232C197.836 97.0138 199.125 98.3032 200.716 98.3032H205.962C207.553 98.3032 208.842 97.0138 208.842 95.4232C208.842 93.8327 207.553 92.5433 205.962 92.5433Z" fill="#E6E6E6"/>
<path d="M172.642 92.0631H140.036C138.446 92.0631 137.156 93.3526 137.156 94.9431C137.156 96.5337 138.446 97.8231 140.036 97.8231H172.642C174.232 97.8231 175.522 96.5337 175.522 94.9431C175.522 93.3526 174.232 92.0631 172.642 92.0631Z" fill="#E6E6E6"/>
<path d="M252.642 92.0631H220.036C218.446 92.0631 217.156 93.3526 217.156 94.9431C217.156 96.5337 218.446 97.8231 220.036 97.8231H252.642C254.232 97.8231 255.522 96.5337 255.522 94.9431C255.522 93.3526 254.232 92.0631 252.642 92.0631Z" fill="#E6E6E6"/>
<path d="M144.962 105.543H139.716C138.125 105.543 136.836 106.833 136.836 108.423C136.836 110.014 138.125 111.303 139.716 111.303H144.962C146.553 111.303 147.842 110.014 147.842 108.423C147.842 106.833 146.553 105.543 144.962 105.543Z" fill="#E6E6E6"/>
<path d="M204.962 105.543H199.716C198.125 105.543 196.836 106.833 196.836 108.423C196.836 110.014 198.125 111.303 199.716 111.303H204.962C206.553 111.303 207.842 110.014 207.842 108.423C207.842 106.833 206.553 105.543 204.962 105.543Z" fill="#E6E6E6"/>
<path d="M221.962 105.543H216.716C215.125 105.543 213.836 106.833 213.836 108.423C213.836 110.014 215.125 111.303 216.716 111.303H221.962C223.553 111.303 224.842 110.014 224.842 108.423C224.842 106.833 223.553 105.543 221.962 105.543Z" fill="#E6E6E6"/>
<path d="M188.642 105.063H156.036C154.446 105.063 153.156 106.353 153.156 107.943C153.156 109.534 154.446 110.823 156.036 110.823H188.642C190.232 110.823 191.522 109.534 191.522 107.943C191.522 106.353 190.232 105.063 188.642 105.063Z" fill="#E6E6E6"/>
<path d="M268.642 105.063H236.036C234.446 105.063 233.156 106.353 233.156 107.943C233.156 109.534 234.446 110.823 236.036 110.823H268.642C270.232 110.823 271.522 109.534 271.522 107.943C271.522 106.353 270.232 105.063 268.642 105.063Z" fill="#E6E6E6"/>
<path d="M160.962 118.543H155.716C154.125 118.543 152.836 119.833 152.836 121.423C152.836 123.014 154.125 124.303 155.716 124.303H160.962C162.553 124.303 163.842 123.014 163.842 121.423C163.842 119.833 162.553 118.543 160.962 118.543Z" fill="#E6E6E6"/>
<path d="M220.962 118.543H215.716C214.125 118.543 212.836 119.833 212.836 121.423C212.836 123.014 214.125 124.303 215.716 124.303H220.962C222.553 124.303 223.842 123.014 223.842 121.423C223.842 119.833 222.553 118.543 220.962 118.543Z" fill="#E6E6E6"/>
<path d="M237.962 118.543H232.716C231.125 118.543 229.836 119.833 229.836 121.423C229.836 123.014 231.125 124.303 232.716 124.303H237.962C239.553 124.303 240.842 123.014 240.842 121.423C240.842 119.833 239.553 118.543 237.962 118.543Z" fill="#E6E6E6"/>
<path d="M204.642 118.063H172.036C170.446 118.063 169.156 119.353 169.156 120.943C169.156 122.534 170.446 123.823 172.036 123.823H204.642C206.232 123.823 207.522 122.534 207.522 120.943C207.522 119.353 206.232 118.063 204.642 118.063Z" fill="#E6E6E6"/>
<path d="M172.962 170.237H167.716C166.125 170.237 164.836 171.526 164.836 173.117C164.836 174.707 166.125 175.997 167.716 175.997H172.962C174.553 175.997 175.842 174.707 175.842 173.117C175.842 171.526 174.553 170.237 172.962 170.237Z" fill="#E6E6E6"/>
<path d="M189.962 170.237H184.716C183.125 170.237 181.836 171.526 181.836 173.117C181.836 174.707 183.125 175.997 184.716 175.997H189.962C191.553 175.997 192.842 174.707 192.842 173.117C192.842 171.526 191.553 170.237 189.962 170.237Z" fill="#E6E6E6"/>
<path d="M236.642 170.717H204.036C202.446 170.717 201.156 172.006 201.156 173.597C201.156 175.188 202.446 176.477 204.036 176.477H236.642C238.232 176.477 239.522 175.188 239.522 173.597C239.522 172.006 238.232 170.717 236.642 170.717Z" fill="#E6E6E6"/>
<path d="M112.962 170.237H107.716C106.125 170.237 104.836 171.526 104.836 173.117C104.836 174.707 106.125 175.997 107.716 175.997H112.962C114.553 175.997 115.842 174.707 115.842 173.117C115.842 171.526 114.553 170.237 112.962 170.237Z" fill="#E6E6E6"/>
<path d="M156.642 170.717H124.036C122.446 170.717 121.156 172.006 121.156 173.597C121.156 175.188 122.446 176.477 124.036 176.477H156.642C158.232 176.477 159.522 175.188 159.522 173.597C159.522 172.006 158.232 170.717 156.642 170.717Z" fill="#E6E6E6"/>
<path d="M128.962 157.237H123.716C122.125 157.237 120.836 158.526 120.836 160.117C120.836 161.707 122.125 162.997 123.716 162.997H128.962C130.553 162.997 131.842 161.707 131.842 160.117C131.842 158.526 130.553 157.237 128.962 157.237Z" fill="#E6E6E6"/>
<path d="M188.962 157.237H183.716C182.125 157.237 180.836 158.526 180.836 160.117C180.836 161.707 182.125 162.997 183.716 162.997H188.962C190.553 162.997 191.842 161.707 191.842 160.117C191.842 158.526 190.553 157.237 188.962 157.237Z" fill="#E6E6E6"/>
<path d="M205.962 157.237H200.716C199.125 157.237 197.836 158.526 197.836 160.117C197.836 161.707 199.125 162.997 200.716 162.997H205.962C207.553 162.997 208.842 161.707 208.842 160.117C208.842 158.526 207.553 157.237 205.962 157.237Z" fill="#E6E6E6"/>
<path d="M172.642 157.717H140.036C138.446 157.717 137.156 159.006 137.156 160.597C137.156 162.188 138.446 163.477 140.036 163.477H172.642C174.232 163.477 175.522 162.188 175.522 160.597C175.522 159.006 174.232 157.717 172.642 157.717Z" fill="#E6E6E6"/>
<path d="M144.962 144.237H139.716C138.125 144.237 136.836 145.526 136.836 147.117C136.836 148.707 138.125 149.997 139.716 149.997H144.962C146.553 149.997 147.842 148.707 147.842 147.117C147.842 145.526 146.553 144.237 144.962 144.237Z" fill="#E6E6E6"/>
<path d="M204.962 144.237H199.716C198.125 144.237 196.836 145.526 196.836 147.117C196.836 148.707 198.125 149.997 199.716 149.997H204.962C206.553 149.997 207.842 148.707 207.842 147.117C207.842 145.526 206.553 144.237 204.962 144.237Z" fill="#E6E6E6"/>
<path d="M221.962 144.237H216.716C215.125 144.237 213.836 145.526 213.836 147.117C213.836 148.707 215.125 149.997 216.716 149.997H221.962C223.553 149.997 224.842 148.707 224.842 147.117C224.842 145.526 223.553 144.237 221.962 144.237Z" fill="#E6E6E6"/>
<path d="M188.642 144.717H156.036C154.446 144.717 153.156 146.006 153.156 147.597C153.156 149.188 154.446 150.477 156.036 150.477H188.642C190.232 150.477 191.522 149.188 191.522 147.597C191.522 146.006 190.232 144.717 188.642 144.717Z" fill="#E6E6E6"/>
<path d="M160.962 131.237H155.716C154.125 131.237 152.836 132.526 152.836 134.117C152.836 135.707 154.125 136.997 155.716 136.997H160.962C162.553 136.997 163.842 135.707 163.842 134.117C163.842 132.526 162.553 131.237 160.962 131.237Z" fill="#E6E6E6"/>
<path d="M220.962 131.237H215.716C214.125 131.237 212.836 132.526 212.836 134.117C212.836 135.707 214.125 136.997 215.716 136.997H220.962C222.553 136.997 223.842 135.707 223.842 134.117C223.842 132.526 222.553 131.237 220.962 131.237Z" fill="#E6E6E6"/>
<path d="M237.962 131.237H232.716C231.125 131.237 229.836 132.526 229.836 134.117C229.836 135.707 231.125 136.997 232.716 136.997H237.962C239.553 136.997 240.842 135.707 240.842 134.117C240.842 132.526 239.553 131.237 237.962 131.237Z" fill="#E6E6E6"/>
<path d="M204.642 131.717H172.036C170.446 131.717 169.156 133.006 169.156 134.597C169.156 136.188 170.446 137.477 172.036 137.477H204.642C206.232 137.477 207.522 136.188 207.522 134.597C207.522 133.006 206.232 131.717 204.642 131.717Z" fill="#E6E6E6"/>
<path d="M94.1 358.04C94.71 358.35 95.33 358.66 95.94 358.96C111.74 366.86 124.38 371.35 141.67 376.27C143.13 359.97 144.54 331.32 145.91 313.56C146.27 308.95 146.63 305.08 146.98 302.35C147.068 300.899 147.365 299.467 147.86 298.1L147.8 302.35L147.65 313.56L146.78 377.67C168.287 383.361 190.381 386.545 212.62 387.16C213.78 387.19 214.92 387.21 216.02 387.23C216.41 387.24 216.79 387.25 217.17 387.25C218.42 387.26 219.66 387.27 220.91 387.27C244.346 387.287 267.697 384.457 290.45 378.84C289.96 362.71 289.47 334.38 289 313.56C288.9 309.49 288.81 305.7 288.71 302.35C288.52 295.19 288.32 290.03 288.13 288.3C288.298 288.607 288.429 288.932 288.52 289.27C289.446 293.582 290.078 297.952 290.41 302.35C290.76 305.7 291.11 309.49 291.46 313.56C293.32 335.19 295.26 364.6 297.26 377.07C309.164 373.82 320.846 369.802 332.23 365.04C338.23 362.54 344.123 359.843 349.91 356.95C348.81 349.75 347.66 341.68 346.48 333.31C345.56 326.82 344.61 320.15 343.64 313.56C342.14 303.38 319.85 232.24 318.44 229.54C317.23 227.23 316.08 225.05 314.99 223.04C312.35 218.16 310.11 214.27 308.45 211.81C301.51 201.283 291.178 193.446 279.17 189.6L278.87 189.52L278.66 189.61L258.21 183.33L255.22 182.41L253.21 181.79L246.13 176.4L242.28 173.47L238.67 170.72L231.61 165.35L187.9 168.04L179.39 188.53L160.33 195.5L160 195.35L159.71 195.23L159.41 195.31C147.404 199.159 137.073 206.996 130.13 217.52C129.19 218.93 128.05 220.79 126.76 223.04C125.66 224.95 124.46 227.13 123.16 229.54C121.31 232.97 119.29 236.84 117.15 241.03C116.68 241.95 116.2 242.89 115.72 243.84C114.83 245.6 113.927 247.397 113.01 249.23C110.88 253.48 108.68 257.92 106.48 262.43C104.57 266.34 102.64 274.38 100.74 284.61C99.1701 293.11 97.6101 303.13 96.1001 313.56C94.1201 327.08 96.2301 343.27 94.4401 355.71C94.33 356.5 94.21 357.27 94.1 358.04Z" fill="#CCCCCC"/>
<path opacity="0.2" d="M303.59 284.566L295.093 251.774L287.59 280.07L303.59 284.566Z" fill="black"/>
<path d="M77.48 263.2C80.52 305.08 77.37 323.52 94.15 358.05C109.417 365.523 125.32 371.62 141.67 376.27C143.37 376.75 145.073 377.217 146.78 377.67C168.287 383.361 190.381 386.545 212.62 387.16C213.78 387.19 214.92 387.21 216.02 387.23C216.41 387.24 216.79 387.25 217.17 387.25C218.42 387.26 219.66 387.27 220.91 387.27C244.346 387.287 267.697 384.457 290.45 378.84C292.73 378.28 295 377.69 297.26 377.07C309.164 373.82 320.846 369.802 332.23 365.04C338.23 362.54 344.123 359.843 349.91 356.95C351.22 356.29 352.53 355.63 353.82 354.95C360.45 343.29 364.22 329.11 364.3 312.07C359.71 282.71 87.62 237.88 77.48 263.2Z" fill="#2F2E41"/>
<path opacity="0.2" d="M77.4879 270.372C77.3326 267.779 77.159 265.101 76.9565 262.312C87.0965 236.992 359.187 281.822 363.777 311.182C363.764 313.874 363.649 316.486 363.455 319.037C352.34 290.059 93.8505 247.451 77.4879 270.372Z" fill="black"/>
<path d="M15.8293 284.186C16.2699 285.469 17.1056 286.579 18.2165 287.357C19.3274 288.135 20.6563 288.541 22.0124 288.517L48.5043 287.835C49.8703 287.808 51.191 287.34 52.2691 286.501C53.3471 285.662 54.1245 284.496 54.4851 283.178L58.234 243.091C59.5641 243.693 61.012 243.991 62.4719 243.962C65.0323 243.896 67.4617 242.816 69.2261 240.959C70.9905 239.103 71.9456 236.621 71.8813 234.061C71.817 231.501 70.7387 229.07 68.8833 227.305C67.028 225.539 64.5474 224.582 61.987 224.645C61.4035 224.643 60.8214 224.704 60.2508 224.826C59.6302 224.154 58.8759 223.62 58.0365 223.258C57.197 222.896 56.291 222.713 55.3768 222.723L14.6262 223.775C14.2882 223.787 13.9519 223.829 13.621 223.9C12.7274 224.066 11.8798 224.422 11.1353 224.944C10.3908 225.466 9.76667 226.141 9.30495 226.924C8.84322 227.707 8.5546 228.58 8.45851 229.484C8.36242 230.388 8.46108 231.302 8.74786 232.164L15.8293 284.186ZM59.0028 240.369L61.6704 230.816C61.9739 229.713 61.9809 228.549 61.6908 227.442C61.8202 227.441 61.9344 227.38 62.0638 227.38C63.8929 227.342 65.6624 228.031 66.9843 229.296C68.3061 230.56 69.0725 232.298 69.1153 234.127C69.1581 235.956 68.4739 237.727 67.2128 239.053C65.9516 240.378 64.2163 241.149 62.3874 241.197C61.2049 241.234 60.0347 240.948 59.0028 240.369V240.369Z" fill="#FF6584"/>
<path d="M13.6211 223.9C14.4893 228.864 24.2502 232.353 35.9869 231.747C46.7796 231.25 55.6044 227.46 57.2212 222.968C56.6228 222.791 56.0006 222.708 55.3768 222.723L14.6263 223.775C14.2882 223.787 13.9519 223.829 13.6211 223.9V223.9Z" fill="#C7455F"/>
<path d="M38.138 262.158C38.1916 262.144 38.2427 262.122 38.2889 262.091L44.042 258.325C44.1116 258.28 44.1687 258.218 44.2083 258.145C44.2479 258.072 44.2686 257.99 44.2687 257.907C44.2687 257.824 44.248 257.743 44.2085 257.67C44.169 257.597 44.1119 257.535 44.0424 257.489L38.0626 253.573C38.0077 253.536 37.9462 253.511 37.8816 253.499C37.817 253.486 37.7505 253.487 37.6861 253.5C37.6216 253.513 37.5604 253.539 37.506 253.576C37.4516 253.613 37.405 253.66 37.3689 253.715C37.3328 253.77 37.308 253.832 37.2958 253.897C37.2836 253.961 37.2843 254.028 37.2978 254.092C37.3114 254.157 37.3375 254.218 37.3747 254.272C37.4119 254.326 37.4595 254.373 37.5147 254.408L42.8556 257.907L37.7416 261.255C37.6426 261.319 37.5697 261.417 37.536 261.53C37.5023 261.644 37.5099 261.765 37.5574 261.874C37.605 261.982 37.6894 262.07 37.7957 262.122C37.902 262.174 38.0233 262.187 38.138 262.158H38.138Z" fill="#2F2E41"/>
<path d="M29.0512 262.577C29.1477 262.552 29.2348 262.499 29.3012 262.425C29.3676 262.351 29.4103 262.259 29.4238 262.16C29.4374 262.061 29.4211 261.961 29.3772 261.871C29.3332 261.782 29.2636 261.708 29.1772 261.658L23.8742 258.618L28.9998 254.811C29.0525 254.771 29.0969 254.722 29.1306 254.666C29.1642 254.61 29.1865 254.547 29.1961 254.482C29.2057 254.417 29.2024 254.351 29.1864 254.288C29.1703 254.224 29.142 254.164 29.1028 254.112C29.0637 254.059 29.0146 254.014 28.9583 253.981C28.902 253.947 28.8396 253.925 28.7746 253.915C28.7097 253.906 28.6436 253.909 28.5799 253.925C28.5163 253.941 28.4565 253.969 28.4038 254.009L22.6652 258.271C22.5985 258.321 22.5452 258.386 22.51 258.461C22.4749 258.536 22.4591 258.619 22.4639 258.702C22.4688 258.785 22.4943 258.865 22.538 258.936C22.5817 259.006 22.6423 259.065 22.7143 259.106L28.6796 262.526C28.7921 262.59 28.9254 262.608 29.0512 262.577Z" fill="#2F2E41"/>
<path d="M37.5657 265.458C37.6141 265.445 37.6603 265.426 37.7027 265.4C37.7589 265.366 37.8078 265.321 37.8466 265.268C37.8854 265.215 37.9134 265.155 37.9289 265.091C37.9445 265.027 37.9473 264.961 37.9372 264.896C37.9272 264.831 37.9044 264.769 37.8702 264.713L29.7147 251.304C29.6454 251.192 29.5343 251.111 29.4057 251.08C29.277 251.049 29.1414 251.07 29.0284 251.139C28.9155 251.208 28.8343 251.319 28.8028 251.447C28.7713 251.576 28.792 251.712 28.8603 251.825L37.0158 265.233C37.0715 265.324 37.1549 265.395 37.2539 265.436C37.3528 265.476 37.4621 265.484 37.5657 265.458V265.458Z" fill="#2F2E41"/>
<path d="M154.966 101.59C157.09 116.7 165.125 130.349 177.307 139.538C189.488 148.727 204.819 152.704 219.932 150.596C235.044 148.488 248.701 140.466 257.903 128.294C267.104 116.122 271.097 100.795 269.004 85.6803L268.89 84.8635C266.454 69.9529 258.256 56.5971 246.062 47.6772C233.868 38.7573 218.656 34.9881 203.708 37.1828C188.761 39.3775 175.274 47.3602 166.159 59.4088C157.044 71.4573 153.03 86.6062 154.984 101.587L154.966 101.59Z" fill="#FFB6B6"/>
<path d="M205.718 149.194C202.742 143.198 199.683 136.761 200.492 130.116C201.3 123.471 207.793 117.101 214.195 119.053C218.024 120.221 220.928 123.988 224.926 124.168C230.428 124.415 233.561 118.109 235.256 112.868L242.158 91.5261C255.472 101.985 238.611 91.0202 255.102 87.1915C261.572 85.6895 268.104 82.7812 271.884 77.3197C275.664 71.8582 275.612 63.4062 270.389 59.3034C267.828 57.2917 264.426 56.5355 261.978 54.3879C260.459 53.0556 259.409 51.2698 258.984 49.2947C258.559 47.3196 258.781 45.2602 259.618 43.4212C260.454 41.5821 261.861 40.0613 263.629 39.0836C265.397 38.1059 267.432 37.7234 269.434 37.9926L251.868 35.8568L257.068 26.3771C253.308 29.3614 248.063 29.7786 243.336 28.9438C238.609 28.109 234.154 26.1789 229.528 24.8971C207.321 18.7441 181.572 29.658 170.55 49.8953C166.225 48.4669 161.567 48.3866 157.194 49.665C152.822 50.9434 148.941 53.5202 146.066 57.0539C141.386 63.0356 140.134 71.0013 139.977 78.595C139.686 93.5676 143 108.391 149.64 121.813C151.709 125.985 154.156 130.077 157.673 133.128C161.191 136.18 200.945 153.083 205.533 152.286" fill="#2F2E41"/>
<path d="M304.77 199.3C304.77 197.789 305.107 196.44 305.782 195.252C306.471 194.049 307.403 193.118 308.576 192.458C309.764 191.783 311.091 191.446 312.558 191.446C314.274 191.446 315.777 191.886 317.068 192.766C318.359 193.646 319.261 194.863 319.774 196.418H316.232C315.88 195.685 315.381 195.135 314.736 194.768C314.105 194.401 313.372 194.218 312.536 194.218C311.641 194.218 310.842 194.431 310.138 194.856C309.449 195.267 308.906 195.853 308.51 196.616C308.129 197.379 307.938 198.273 307.938 199.3C307.938 200.312 308.129 201.207 308.51 201.984C308.906 202.747 309.449 203.341 310.138 203.766C310.842 204.177 311.641 204.382 312.536 204.382C313.372 204.382 314.105 204.199 314.736 203.832C315.381 203.451 315.88 202.893 316.232 202.16H319.774C319.261 203.729 318.359 204.954 317.068 205.834C315.792 206.699 314.289 207.132 312.558 207.132C311.091 207.132 309.764 206.802 308.576 206.142C307.403 205.467 306.471 204.536 305.782 203.348C305.107 202.16 304.77 200.811 304.77 199.3ZM330.727 204.558H335.787V207H327.647V191.644H330.727V204.558ZM352.403 204.074H346.287L345.275 207H342.041L347.563 191.622H351.149L356.671 207H353.415L352.403 204.074ZM351.567 201.61L349.345 195.186L347.123 201.61H351.567Z" fill="#262534"/>
</svg>
