<svg width="200" height="200" viewBox="0 0 200 200" fill="none" xmlns="http://www.w3.org/2000/svg">
<path d="M27.7344 179.688L11.7188 0H187.891L171.875 179.688L99.6094 200" fill="#E34F26"/>
<path d="M100 184.375L158.203 168.359L171.875 14.4531H100" fill="#EF652A"/>
<path d="M100 81.25H70.7031L68.75 58.5938H100V36.7188H44.5312L50.3906 103.516H100V81.25ZM99.6094 138.672L75 132.031L73.4375 114.453H51.5625L54.2969 149.219L99.6094 161.719V138.672Z" fill="#EBEBEB"/>
<path d="M99.6094 81.25V103.516H126.953L124.219 132.031L99.6094 138.672V161.719L144.922 149.219L151.172 81.25H99.6094ZM99.6094 36.7188V58.5938H153.125L155.078 36.7188H99.6094Z" fill="white"/>
</svg>
