<svg width="200" height="200" viewBox="0 0 200 200" fill="none" xmlns="http://www.w3.org/2000/svg">
<g clip-path="url(#clip0_6_1117)">
<path d="M78.45 175.225C73.3167 178.2 72.3417 178.55 67.5167 180.258C66.35 180.658 64.5833 181.367 68.1833 183.433L92.35 197.917C94.6583 199.275 97.325 199.983 99.95 199.983L99.9667 200C102.625 200 105.25 199.283 107.558 197.933L179.908 155.625C184.608 152.85 187.508 147.725 187.508 142.25V57.6833C187.508 52.1666 184.617 47.0416 179.908 44.3083L107.558 1.95831C105.232 0.671347 102.617 -0.00378418 99.9583 -0.00378418C97.2997 -0.00378418 94.6847 0.671347 92.3583 1.95831L20.0917 44.2666C17.7747 45.6459 15.8565 47.6043 14.5255 49.9493C13.1945 52.2943 12.4964 54.9452 12.5 57.6416V142.208C12.5 147.725 15.3917 152.85 20.0917 155.583L39.05 166.658C48.2167 171.267 51.5 171.267 55.6917 171.267C69.2833 171.267 77.1167 162.933 77.1167 148.408V64.875C77.1156 64.5981 77.06 64.3242 76.953 64.0688C76.846 63.8134 76.6898 63.5816 76.4933 63.3866C76.2967 63.1916 76.0637 63.0372 75.8075 62.9323C75.5513 62.8273 75.2769 62.7739 75 62.775H65.8333C65.5556 62.7705 65.2797 62.8217 65.022 62.9254C64.7642 63.0292 64.5299 63.1834 64.3326 63.3791C64.1354 63.5748 63.9793 63.8079 63.8735 64.0648C63.7677 64.3217 63.7144 64.5972 63.7167 64.875V148.367C63.7167 154.833 57.1333 161.225 46.3583 155.792L26.5417 144.2C26.1971 144.005 25.911 143.721 25.7132 143.378C25.5154 143.036 25.413 142.646 25.4167 142.25V57.6833C25.4167 56.8583 25.85 56.0583 26.55 55.6583L98.8167 13.35C99.1559 13.1531 99.5411 13.0495 99.9333 13.0495C100.326 13.0495 100.711 13.1531 101.05 13.35L173.358 55.6166C173.705 55.8291 173.991 56.1268 174.189 56.4813C174.388 56.8358 174.492 57.2354 174.492 57.6416V142.25C174.492 143.033 174.067 143.833 173.4 144.233L101.05 186.542C100.711 186.738 100.326 186.842 99.9333 186.842C99.5411 186.842 99.1559 186.738 98.8167 186.542L80.25 175.392C79.7 175.033 79 174.908 78.45 175.225V175.225Z" fill="#8CC03E"/>
<path d="M122.283 128.908C103.133 128.908 98.9334 124.025 97.5334 114.383C97.461 113.886 97.211 113.431 96.8297 113.103C96.4483 112.776 95.9612 112.597 95.4584 112.6H86.1C85.8254 112.6 85.5536 112.655 85.3002 112.76C85.0468 112.866 84.8169 113.021 84.6239 113.217C84.4309 113.412 84.2786 113.644 84.1758 113.898C84.073 114.153 84.0217 114.425 84.0251 114.7C84.0251 127.042 90.6417 141.767 122.325 141.767C145.192 141.725 158.367 132.567 158.367 116.608L158.342 116.617C158.342 100.783 147.767 96.575 125.558 93.6C103.075 90.5834 100.808 89.0334 100.808 83.7167C100.808 79.3167 102.733 73.4417 119.375 73.4417C134.225 73.4417 139.708 76.6917 141.975 86.85C142.167 87.8084 143.033 88.5167 144.017 88.5167H153.417C154 88.5167 154.55 88.2834 154.942 87.8417C155.332 87.3935 155.529 86.8096 155.492 86.2167C154.042 68.7167 142.567 60.5834 119.375 60.5834C98.7334 60.5834 86.4334 69.4 86.4334 84.1917C86.4334 100.225 98.6917 104.675 118.475 106.65C142.175 109 144.008 112.525 144.008 117.25C144.025 125.425 137.525 128.908 122.283 128.908V128.908Z" fill="#8CC03E"/>
</g>
<defs>
<clipPath id="clip0_6_1117">
<rect width="200" height="200" fill="white"/>
</clipPath>
</defs>
</svg>
