<svg width="200" height="200" viewBox="0 0 200 200" fill="none" xmlns="http://www.w3.org/2000/svg">
<g clip-path="url(#clip0_6_1124)">
<path d="M157.125 50.4083C156.923 50.5563 156.772 50.7632 156.693 51.0005C156.614 51.2379 156.611 51.4939 156.683 51.7333V51.725C156.983 52.3256 157.1 53.0009 157.02 53.6674C156.94 54.3339 156.667 54.9623 156.233 55.475L156.242 55.4666C156.078 55.6729 155.99 55.9286 155.992 56.1916C155.992 56.5583 156.167 56.8916 156.433 57.1083C156.634 57.2641 156.879 57.3517 157.133 57.3583C157.483 57.3583 157.8 57.1916 158.017 56.9416C158.734 56.0805 159.184 55.0287 159.311 53.9153C159.438 52.802 159.238 51.6757 158.733 50.675C158.646 50.5515 158.534 50.4467 158.406 50.3665C158.277 50.2862 158.134 50.2322 157.985 50.2074C157.835 50.1826 157.682 50.1876 157.535 50.2221C157.387 50.2566 157.248 50.3198 157.125 50.4083ZM158.742 50.6833L158.725 50.65L158.733 50.675L158.742 50.6833Z" fill="#F36933"/>
<path d="M112.724 0.823438C57.9569 -6.20156 7.84858 32.4984 0.823585 87.2734C-6.20141 142.04 32.4903 192.14 87.2652 199.173C142.04 206.198 192.165 167.498 199.174 112.723C206.207 57.9568 167.515 7.85677 112.724 0.823438ZM133.315 63.1984C131.459 63.2193 129.685 63.9673 128.374 65.2818L91.2652 102.39L83.3486 94.4734C119.924 58.0068 126.524 57.6568 133.315 63.1984V63.1984ZM92.7903 103.707L129.79 66.7068C130.274 66.1971 130.858 65.7916 131.504 65.5151C132.15 65.2386 132.846 65.097 133.549 65.0988C134.253 65.1007 134.948 65.246 135.593 65.5259C136.238 65.8057 136.819 66.2143 137.3 66.7265C137.782 67.2387 138.154 67.8438 138.393 68.5048C138.633 69.1658 138.735 69.8687 138.694 70.5705C138.652 71.2723 138.468 71.9583 138.152 72.5864C137.836 73.2145 137.395 73.7715 136.857 74.2234L136.849 74.2318L97.6902 108.607L92.7903 103.707V103.707ZM95.5402 109.49L86.3736 111.473C86.3379 111.48 86.3016 111.483 86.2653 111.482C86.1721 111.482 86.0806 111.457 86.001 111.408C85.9215 111.36 85.8572 111.29 85.8153 111.207C85.7595 111.111 85.7374 110.998 85.7525 110.888C85.7676 110.778 85.819 110.676 85.8986 110.598L91.2736 105.223L95.5402 109.49ZM72.1819 105.665L81.9486 95.8984L89.2736 103.215L72.7819 106.765C72.7297 106.775 72.6767 106.781 72.6236 106.782C72.5092 106.781 72.3973 106.749 72.3001 106.689C72.203 106.629 72.1246 106.542 72.0736 106.44C72.0121 106.343 71.9802 106.23 71.9819 106.115C71.9819 105.94 72.0569 105.773 72.1819 105.665V105.665ZM41.7986 156.14C41.6409 156.129 41.4933 156.059 41.3863 155.942C41.2794 155.826 41.2211 155.673 41.2236 155.515V155.448C41.2394 155.304 41.304 155.168 41.4069 155.065H41.4236L49.3069 147.182L59.4902 157.365L41.7986 156.14V156.14ZM62.0152 145.682C61.633 145.877 61.3284 146.195 61.1512 146.586C60.974 146.977 60.9349 147.416 61.0402 147.832V147.815L62.7319 155.023C62.7866 155.246 62.7666 155.479 62.6751 155.689C62.5835 155.899 62.4256 156.072 62.2256 156.183C62.0255 156.294 61.7945 156.336 61.5683 156.303C61.342 156.269 61.133 156.162 60.9736 155.998H60.9486L50.7152 145.757L82.0652 114.44L97.2319 111.165L104.515 118.448C94.0569 127.632 79.7569 136.79 62.0152 145.682V145.682ZM105.999 117.115H105.982L98.9902 110.123L138.149 75.7484C138.503 75.4302 138.829 75.0816 139.124 74.7068L139.14 74.6901C137.915 85.8984 122.232 101.732 105.999 117.115V117.115ZM147.182 67.7151C145.193 67.7187 143.223 67.3288 141.385 66.568C139.547 65.8071 137.878 64.6903 136.474 63.2818H136.482L136.457 63.2651C133.727 60.4899 132.167 56.772 132.1 52.8796C132.033 48.9872 133.463 45.2177 136.095 42.3498C138.728 39.4819 142.362 37.7347 146.246 37.4693C150.129 37.2038 153.967 38.4404 156.965 40.9234L156.94 40.9068L143.524 54.3484C143.431 54.4397 143.357 54.5487 143.307 54.6689C143.257 54.7891 143.231 54.9182 143.232 55.0484C143.232 55.3234 143.34 55.5734 143.524 55.7484L153.915 66.1401C151.824 67.1821 149.518 67.7214 147.182 67.7151ZM157.965 63.2818C157.29 63.9484 156.557 64.5401 155.757 65.0651L155.707 65.0984H155.699L145.64 55.0401L158.415 42.2651C163.924 48.2651 163.724 57.5318 157.965 63.2818Z" fill="#F36933"/>
</g>
<defs>
<clipPath id="clip0_6_1124">
<rect width="200" height="200" fill="white"/>
</clipPath>
</defs>
</svg>
