<svg width="200" height="200" viewBox="0 0 200 200" fill="none" xmlns="http://www.w3.org/2000/svg">
<g clip-path="url(#clip0_6_1115)">
<path d="M199.916 128.558C199.263 123.246 196.308 119.126 191.792 115.895C192.908 116.692 193.853 117.366 191.771 115.879C188.963 113.875 190.451 114.938 191.753 115.867C180.62 107.937 166.098 109.699 153.966 114.105C149.104 106.177 148.893 100.127 151.694 91.4731C152.057 90.3793 151.81 89.7723 150.669 89.284C147.901 88.1004 143.915 88.7266 141.13 89.4649C140.168 89.7172 139.468 90.207 139.255 91.1762C137.241 100.646 131.048 109.32 125.65 117.304C121.849 110.018 122.15 104.379 124.707 96.7895C125.019 95.8652 124.875 95.3738 123.95 94.8836C121.114 93.416 116.762 94.1367 113.872 94.9914C110.548 95.9609 105.556 112.411 103.961 115.673C100.629 122.487 97.6757 133.121 92.014 138.526C87.2093 132.351 100.813 118.402 96.2647 112.803C94.7265 110.909 91.9433 110.958 90.1765 112.562C90.6003 109.59 90.8202 107.637 90.0515 105.116C89.2386 102.463 87.1761 100.941 84.1569 101.018C77.1276 101.224 70.937 106.414 66.719 111.329C62.7046 116.058 52.1171 118.996 46.4249 121.848C36.6468 113.329 15.4792 104.29 14.928 89.7848C14.3311 73.4387 33.8026 62.3453 46.8019 55.7113C63.7081 47.077 89.7554 36.3332 108.965 45.7754C114.062 48.2809 116.113 53.6547 114.71 58.802C111.051 72.2262 96.2733 81.182 83.4198 85.2891C77.096 87.3106 70.1507 88.8152 63.4589 88.4242C54.4921 87.8996 47.5097 82.4774 46.5522 82.1406C45.7519 81.9887 45.8147 83.0238 46.0261 83.5719C55.3292 107.96 102.439 90.0879 114.759 77.5676C120.692 71.5438 124.295 65.7063 125.833 56.5152C127.637 45.7406 119.726 38.9988 113.723 36.2195C83.2858 22.1289 41.2085 40.582 18.194 59.3941C8.20654 67.5586 -4.28721 80.5309 1.44638 94.1387C7.66904 108.906 26.7339 116.479 39.1429 125.511C29.1022 130.5 16.5405 135.66 10.0343 145.016C6.31396 150.379 4.99404 156.093 7.76435 162.19C12.6753 172.959 30.5319 168.292 38.0663 163.546C44.9686 159.198 49.6143 153.362 51.621 145.879C53.3612 139.391 53.0042 132.65 50.1147 126.538L61.2808 120.89C58.2741 129.904 56.946 141.204 63.1874 149.349C65.6882 152.606 72.1784 152.738 74.8347 149.471C78.2784 145.196 80.5628 139.84 82.8436 134.937C82.5772 138.598 82.1186 142.748 83.3815 145.939C84.8308 149.6 88.1183 150.35 91.5034 148.026C101.863 140.916 108.456 121.209 113.559 109.721C114.947 114.732 116.478 119.31 119.011 123.93C119.637 125.064 119.561 125.795 118.7 126.741C114.917 130.911 105.878 137.865 105.001 143.498C104.797 144.815 105.671 146.076 107.223 146.377C113.306 147.591 120.05 145.388 124.989 142.05C130.141 138.564 131.804 133.813 130.553 128.177C128.766 120.063 134.848 110.997 140.632 104.337C141.694 109.379 143.294 114.232 146.157 118.636C141.049 123.122 133.43 129.481 134.524 136.971C134.91 139.653 137.311 141.386 140.194 140.775C146.359 139.476 151.684 136.824 155.573 132.124C159.097 127.884 157.835 123.256 156.298 118.595C165.623 115.932 175.056 115.4 184.357 118.584C188.847 120.111 192.464 122.686 194.61 126.716C197.237 131.655 195.758 136.205 190.684 139.452C189.4 140.274 188.511 140.949 188.946 141.305C189.38 141.661 190.86 142.13 194.135 140.073C197.41 138.016 199.412 135.236 199.925 131.587C200.028 130.58 200.024 129.564 199.916 128.558V128.558ZM44.1194 138.425C43.589 144.938 40.3554 150.219 35.0667 154.485C32.0913 156.89 28.3862 158.85 24.7073 159.208C21.0284 159.566 18.164 158.638 17.919 154.821C17.23 144.082 33.9046 133.562 43.1632 130.395C43.9522 133.074 44.3393 135.733 44.1132 138.436L44.1194 138.425V138.425ZM84.3937 110.123C82.869 118.837 78.6007 134.477 71.771 140.723C70.8507 141.56 69.9702 141.511 69.5019 140.422C65.4608 131.023 70.9358 111.645 82.4245 108.653C83.7749 108.305 84.6128 108.88 84.3937 110.123V110.123ZM111.859 142.063C115.149 138.563 118.435 135.065 121.73 131.545C122.137 135.459 114.866 143.25 111.859 142.063ZM143.388 135.151C142.471 135.648 140.411 136.133 140.33 135.477C139.751 130.756 144.946 125.761 148.169 123.42C149.908 127.85 147.85 132.73 143.388 135.151V135.151Z" fill="#FF3D6D"/>
</g>
<defs>
<clipPath id="clip0_6_1115">
<rect width="200" height="200" fill="white"/>
</clipPath>
</defs>
</svg>
