<svg width="500" height="580" viewBox="0 0 712 670" fill="none" xmlns="http://www.w3.org/2000/svg">
<g clip-path="url(#clip0_4_1024)">
<path d="M516.326 380.018V565.013L547.27 615.443L549.625 619.279H671.722L674.189 380.018H516.326Z" fill="#E6E6E6"/>
<path opacity="0.1" d="M516.326 380.018V565.013L547.27 615.443L549.169 380.018H516.326Z" fill="black"/>
<path d="M221.566 375.084V560.08L190.622 610.51L188.267 614.345H66.17L63.703 375.084H221.566Z" fill="#E6E6E6"/>
<path opacity="0.1" d="M221.566 375.084V560.08L190.622 610.51L188.723 375.084H221.566Z" fill="black"/>
<path d="M711.188 371.385V382.484H47.67V366.451L109.335 334.385H656.923L711.188 371.385Z" fill="#E6E6E6"/>
<path opacity="0.1" d="M711 372.308V382H48V368L711 372.308Z" fill="#646185"/>
<path d="M142.635 426.883H113.035L100.702 418.25H156.201L142.635 426.883Z" fill="#3F3D56"/>
<path d="M142.635 462.649H113.035L100.702 454.016H156.201L142.635 462.649Z" fill="#3F3D56"/>
<path d="M142.635 513.215H113.035L100.702 504.581H156.201L142.635 513.215Z" fill="#3F3D56"/>
<path d="M142.635 563.78H113.035L100.702 555.147H156.201L142.635 563.78Z" fill="#3F3D56"/>
<path d="M595.257 431.816H624.857L637.19 423.183H581.691L595.257 431.816Z" fill="#3F3D56"/>
<path d="M595.257 467.582H624.857L637.19 458.949H581.691L595.257 467.582Z" fill="#3F3D56"/>
<path d="M595.257 518.148H624.857L637.19 509.515H581.691L595.257 518.148Z" fill="#3F3D56"/>
<path d="M595.257 568.713H624.857L637.19 560.08H581.691L595.257 568.713Z" fill="#3F3D56"/>
<path d="M615.414 120.456H366.228C364.991 120.456 363.765 120.7 362.622 121.173C361.478 121.647 360.439 122.341 359.564 123.216C358.689 124.091 357.995 125.13 357.522 126.274C357.048 127.417 356.804 128.643 356.805 129.88V297.738C356.804 298.975 357.048 300.201 357.522 301.344C357.995 302.488 358.689 303.527 359.564 304.402C360.439 305.277 361.478 305.971 362.622 306.445C363.765 306.918 364.991 307.162 366.228 307.162H460.821L457.277 329.788C457.277 329.788 437.025 340.547 451.265 340.864C465.505 341.18 532.593 340.864 532.593 340.864C532.593 340.864 545.567 340.864 524.998 329.472L521.664 307.162H615.414C616.651 307.162 617.877 306.918 619.02 306.445C620.164 305.971 621.203 305.277 622.078 304.402C622.953 303.527 623.647 302.488 624.121 301.344C624.594 300.201 624.838 298.975 624.838 297.738V129.88C624.838 128.643 624.594 127.417 624.121 126.274C623.647 125.13 622.953 124.091 622.078 123.216C621.203 122.341 620.164 121.647 619.02 121.173C617.877 120.7 616.651 120.456 615.414 120.456V120.456Z" fill="#282837"/>
<path d="M615.819 130.424H365.823V270.295H615.819V130.424Z" fill="#F2F2F2"/>
<path d="M490.821 127.576C491.695 127.576 492.403 126.868 492.403 125.994C492.403 125.12 491.695 124.412 490.821 124.412C489.947 124.412 489.239 125.12 489.239 125.994C489.239 126.868 489.947 127.576 490.821 127.576Z" fill="#F2F2F2"/>
<path d="M490.821 300.358C494.142 300.358 496.834 297.666 496.834 294.346C496.834 291.025 494.142 288.333 490.821 288.333C487.5 288.333 484.809 291.025 484.809 294.346C484.809 297.666 487.5 300.358 490.821 300.358Z" fill="#F2F2F2"/>
<path d="M481.452 357.952V361.117H311.202V358.585L311.436 357.952L315.632 346.56H477.971L481.452 357.952Z" fill="#3F3D56"/>
<path d="M546.97 354.854C546.659 356.18 545.489 357.579 542.843 358.901C533.35 363.648 514.046 357.636 514.046 357.636C514.046 357.636 499.173 355.104 499.173 348.459C499.59 348.173 500.026 347.914 500.477 347.683C504.468 345.572 517.702 340.361 541.167 347.904C542.896 348.447 544.44 349.458 545.628 350.827C546.154 351.344 546.55 351.979 546.783 352.679C547.016 353.379 547.08 354.124 546.97 354.854Z" fill="#3F3D56"/>
<path opacity="0.1" d="M546.97 354.854C535.35 359.306 524.992 359.639 514.363 352.256C510.343 349.284 505.476 347.681 500.477 347.683C504.468 345.572 517.702 340.361 541.167 347.904C542.896 348.447 544.44 349.458 545.628 350.827C546.154 351.344 546.55 351.979 546.783 352.679C547.016 353.379 547.08 354.124 546.97 354.854Z" fill="black"/>
<path d="M532.4 352.256C534.672 352.256 536.514 351.689 536.514 350.99C536.514 350.291 534.672 349.724 532.4 349.724C530.128 349.724 528.286 350.291 528.286 350.99C528.286 351.689 530.128 352.256 532.4 352.256Z" fill="#F2F2F2"/>
<path opacity="0.1" d="M481.452 357.952V361.117H311.202V358.585L311.436 357.952H481.452Z" fill="black"/>
<path d="M94.6615 0.000127932C92.9336 -0.141736 91.2034 0.244769 89.7002 1.10843C88.2242 2.11923 87.2939 3.89004 86.3443 5.53789C82.7136 11.9135 77.7984 17.4656 71.9101 21.8425C67.6211 24.9845 62.1683 28.9022 62.9021 34.6952C63.2893 36.6083 63.996 38.4425 64.9927 40.1207C68.9493 48.1077 79.7463 54.28 78.6843 63.3938C82.6153 56.8129 77.3573 53.5588 81.2883 46.978C83.1603 43.844 86.4124 40.3063 89.2388 42.2744C90.1852 42.9334 90.8066 44.1154 91.792 44.6936C94.1432 46.0733 96.6446 43.4356 98.7258 41.5673C105.903 35.1246 116.109 36.8125 125.04 38.8198C129.256 39.7675 133.887 41.0108 136.379 45.0405C139.656 50.3387 133.266 56.0609 131.651 62.051C131.52 62.5614 131.513 63.0962 131.633 63.6095C131.753 64.1229 131.996 64.5995 132.34 64.9988C132.684 65.398 133.12 65.7079 133.61 65.902C134.1 66.096 134.63 66.1685 135.154 66.1132C137.834 65.8488 141.008 65.6322 141.167 64.4562C144.539 64.5762 148.67 64.1944 150.114 60.6837C150.556 59.2947 150.789 57.8479 150.807 56.3905C151.337 50.4934 153.84 45.1133 155.498 39.5006C157.156 33.8879 157.877 27.3101 155.079 22.3338C154.08 20.6781 152.845 19.1771 151.413 17.8782C135.534 2.51149 114.657 -0.0226821 94.6615 0.000127932Z" fill="#2F2E41"/>
<path d="M82.1377 74.9052C82.1377 74.9052 85.5911 103.684 72.9286 105.986C60.2661 108.288 84.44 147.427 84.44 147.427L141.997 154.334L128.183 108.288C128.183 108.288 118.974 104.835 124.73 81.812C130.485 58.7893 82.1377 74.9052 82.1377 74.9052Z" fill="#FFB8B8"/>
<path d="M47.028 569.318L51.633 632.631H75.806L68.9 569.318H47.028Z" fill="#FFB8B8"/>
<path d="M224.303 449.6L227.756 502.552L254.233 491.041L243.872 447.298L224.303 449.6Z" fill="#FFB8B8"/>
<path d="M29.761 327.58C29.761 327.58 30.9121 394.345 37.819 416.217C44.7259 438.089 43.5747 439.24 42.4235 442.693C41.2724 446.147 40.1213 443.844 40.1213 449.6C40.1213 455.356 37.819 546.295 40.1213 554.353C42.4235 562.411 33.2145 576.225 40.1213 577.376C47.0281 578.527 79.2599 577.376 80.411 570.469C81.5622 563.563 71.202 561.26 75.8065 556.656C80.4111 552.051 87.3179 457.658 87.3179 457.658L103.434 392.043L133.363 357.509H196.676L216.245 433.484C216.245 433.484 208.187 455.356 213.943 455.356C219.699 455.356 254.233 462.263 254.233 436.938C254.233 411.613 242.721 336.789 240.419 334.486C238.117 332.184 241.57 324.126 238.117 320.673C234.663 317.219 194.374 293.046 179.409 288.441C164.444 283.836 143.451 278.356 143.451 278.356L29.761 327.58Z" fill="#2F2E41"/>
<path d="M254.233 481.832C254.233 481.832 236.966 476.076 228.908 493.343C220.85 510.61 224.303 515.215 224.303 515.215C224.303 515.215 250.779 524.424 255.384 519.819C257.387 517.816 263.748 517.12 270.296 516.973C280.269 516.749 282.923 502.64 273.504 499.354C273.223 499.256 272.939 499.171 272.651 499.099C263.442 496.797 254.233 481.832 254.233 481.832Z" fill="#2F2E41"/>
<path d="M108.038 93.8989C127.111 93.8989 142.572 78.4375 142.572 59.3648C142.572 40.2922 127.111 24.8307 108.038 24.8307C88.9656 24.8307 73.5042 40.2922 73.5042 59.3648C73.5042 78.4375 88.9656 93.8989 108.038 93.8989Z" fill="#FFB8B8"/>
<path d="M63.1439 120.375C63.1439 120.375 119.55 131.886 133.363 113.468C147.177 95.0501 152.933 165.269 152.933 165.269L159.839 238.942L149.479 279.232C149.479 279.232 95.3758 322.975 78.1087 326.428C60.8417 329.882 34.3655 332.184 34.3655 332.184C34.3655 332.184 42.4235 204.408 42.4235 202.106C42.4235 199.803 63.1439 120.375 63.1439 120.375Z" fill="#FF6584"/>
<path d="M80.2983 98.7859C80.2983 98.7859 67.7485 91.5967 64.2951 98.5035C60.8417 105.41 28.6099 122.677 25.1565 122.677C21.703 122.677 32.0633 218.222 27.4587 229.733C22.8542 241.244 0.982597 325.277 13.6451 332.184C26.3076 339.091 17.0985 325.277 29.761 342.544C42.4235 359.811 104.585 359.811 108.038 352.905C111.492 345.998 80.411 294.197 86.1667 245.849C91.9224 197.501 101.131 130.735 93.0735 121.526C85.0156 112.317 80.2983 98.7859 80.2983 98.7859Z" fill="#636BFF"/>
<path d="M122 106.825L123.684 101C123.684 101 173.993 117.763 176.411 128.7C178.83 139.638 177.621 216.2 169.157 222.277C160.693 228.353 148.601 238.075 157.065 252.658C165.529 267.242 175.202 283.04 182.457 284.256C189.712 285.471 203.013 293.978 199.385 302.485C195.758 310.992 152.229 295.193 152.229 295.193C152.229 295.193 123.209 273.318 124.418 239.29C125.627 205.263 122 106.825 122 106.825Z" fill="#636BFF"/>
<path d="M162.142 242.396L134.514 294.197C134.514 294.197 94.2246 335.638 117.247 340.242C140.27 344.847 152.933 302.255 152.933 302.255L182.862 259.663L162.142 242.396Z" fill="#FFB8B8"/>
<path d="M96.3438 9.0359C94.9518 8.93276 93.5576 9.20318 92.3051 9.81924C91.1727 10.6463 90.2393 11.7159 89.5733 12.95C86.5029 17.5685 82.5005 21.4939 77.8232 24.474C74.3318 26.6947 69.893 29.4637 70.4904 33.5582C70.8146 34.931 71.3918 36.2314 72.1922 37.3929C75.4242 43.0951 76.7108 49.6949 75.8574 56.1935L85.4575 42.2395C86.9814 40.0245 89.6287 37.524 91.9296 38.9151C92.7 39.3809 93.2058 40.2163 94.0079 40.625C95.9219 41.6002 97.9581 39.7359 99.6524 38.4153C105.495 33.8617 113.803 35.0546 121.073 36.4734C124.505 37.1432 128.275 38.022 130.304 40.8702C133.676 45.6033 130.155 52.4423 132.123 57.9102C132.674 57.5245 133.141 57.0322 133.498 56.4624C133.856 55.8926 134.095 55.2569 134.201 54.593C136.946 54.6779 140.309 54.408 141.485 51.9266C141.842 50.9542 142.033 49.9283 142.049 48.8922C142.48 44.7242 144.518 40.9216 145.867 36.9546C147.217 32.9875 147.804 28.3384 145.526 24.8212C144.693 23.6294 143.687 22.5681 142.542 21.672C129.616 10.8109 112.621 9.01978 96.3438 9.0359Z" fill="#2F2E41"/>
<path d="M162.142 122.677L172.867 125.524C172.867 125.524 197.827 189.443 192.071 233.186C186.316 276.93 182.862 267.721 182.862 267.721C182.862 267.721 173.653 247 152.933 251.605L162.142 122.677Z" fill="#636BFF"/>
<path d="M48.6229 624.263C45.847 628.036 46.4035 633.428 43.9446 637.414C41.8132 640.869 37.7962 642.681 35.1302 645.743C34.2795 646.76 33.5212 647.851 32.8641 649.003C30.391 653.145 28.3808 658.454 30.8165 662.619C32.7758 665.969 36.8943 667.279 40.6714 668.171C45.4455 669.299 50.4058 670.202 55.235 669.34C60.0642 668.478 64.7838 665.521 66.5057 660.927C66.8441 659.772 67.2464 658.637 67.7107 657.527C70.3282 652.374 78.5382 652.318 81.217 647.197C83.0917 643.613 81.3684 639.28 79.6459 635.621L74.3848 624.444C72.6388 620.735 65.5611 622.868 61.8714 621.979C57.0591 620.82 52.0848 619.543 48.6229 624.263Z" fill="#2F2E41"/>
<path d="M10.1917 265.418L58.5394 340.242C58.5394 340.242 88.4689 378.23 97.678 360.963C106.887 343.696 65.4462 314.917 65.4462 314.917L34.3655 257.36L10.1917 265.418Z" fill="#FFB8B8"/>
<path d="M34.7908 125.302L25.4677 123C25.4677 123 6.82165 128.756 2.16013 152.929C-2.50139 177.102 0.994742 273.796 6.82165 274.947C12.6486 276.098 35.6007 258.111 39.2746 261.924C42.9485 265.738 31.2946 246.169 34.7908 235.809C38.2869 225.449 34.7908 125.302 34.7908 125.302Z" fill="#5C64F2"/>
<path d="M488.218 181H458.466V188.163H488.218V181Z" fill="#636BFF"/>
<path d="M569.762 181H498.687V188.163H569.762V181Z" fill="#636BFF"/>
<path d="M450.752 227.281H421V234.444H450.752V227.281Z" fill="#636BFF"/>
<path d="M553.784 227.281H543.315V234.444H553.784V227.281Z" fill="#636BFF"/>
<path d="M574.721 227.281H564.252V234.444H574.721V227.281Z" fill="#636BFF"/>
<path d="M532.296 227.281H461.221V234.444H532.296V227.281Z" fill="#636BFF"/>
<path d="M573.619 196.978H543.866V204.141H573.619V196.978Z" fill="#636BFF"/>
<path d="M415 197H408V204H415V197Z" fill="#636BFF"/>
<path d="M415 213H401V220H415V213Z" fill="#636BFF"/>
<path d="M431.468 196.978H421V204.141H431.468V196.978Z" fill="#636BFF"/>
<path d="M452.405 196.978H441.937V204.141H452.405V196.978Z" fill="#636BFF"/>
<path d="M451 181H426V188H451V181Z" fill="#636BFF"/>
<path d="M533.949 196.978H462.874V204.141H533.949V196.978Z" fill="#636BFF"/>
<path d="M511.91 212.405H482.158V219.568H511.91V212.405Z" fill="#636BFF"/>
<path d="M471.689 212.405H441.937V219.568H471.689V212.405Z" fill="#636BFF"/>
<path d="M431.468 212.405H421V219.568H431.468V212.405Z" fill="#636BFF"/>
<path d="M579.059 212.637H522.059V219.637H579.059V212.637Z" fill="#636BFF"/>
<path d="M519.26 143.644V159H516.18V149.012L512.066 159H509.734L505.598 149.012V159H502.518V143.644H506.016L510.9 155.062L515.784 143.644H519.26ZM533.965 146.812L526.419 164.764H523.141L525.781 158.692L520.897 146.812H524.351L527.497 155.326L530.687 146.812H533.965ZM546.17 159.154C545.099 159.154 544.131 158.971 543.266 158.604C542.415 158.237 541.74 157.709 541.242 157.02C540.743 156.331 540.486 155.517 540.472 154.578H543.772C543.816 155.209 544.036 155.707 544.432 156.074C544.842 156.441 545.4 156.624 546.104 156.624C546.822 156.624 547.387 156.455 547.798 156.118C548.208 155.766 548.414 155.311 548.414 154.754C548.414 154.299 548.274 153.925 547.996 153.632C547.717 153.339 547.365 153.111 546.94 152.95C546.529 152.774 545.957 152.583 545.224 152.378C544.226 152.085 543.412 151.799 542.782 151.52C542.166 151.227 541.63 150.794 541.176 150.222C540.736 149.635 540.516 148.858 540.516 147.89C540.516 146.981 540.743 146.189 541.198 145.514C541.652 144.839 542.29 144.326 543.112 143.974C543.933 143.607 544.872 143.424 545.928 143.424C547.512 143.424 548.795 143.813 549.778 144.59C550.775 145.353 551.325 146.423 551.428 147.802H548.04C548.01 147.274 547.783 146.841 547.358 146.504C546.947 146.152 546.397 145.976 545.708 145.976C545.106 145.976 544.622 146.13 544.256 146.438C543.904 146.746 543.728 147.193 543.728 147.78C543.728 148.191 543.86 148.535 544.124 148.814C544.402 149.078 544.74 149.298 545.136 149.474C545.546 149.635 546.118 149.826 546.852 150.046C547.849 150.339 548.663 150.633 549.294 150.926C549.924 151.219 550.467 151.659 550.922 152.246C551.376 152.833 551.604 153.603 551.604 154.556C551.604 155.377 551.391 156.14 550.966 156.844C550.54 157.548 549.917 158.113 549.096 158.538C548.274 158.949 547.299 159.154 546.17 159.154ZM561.49 159L557.354 153.808V159H554.274V142.72H557.354V151.982L561.446 146.812H565.45L560.082 152.928L565.494 159H561.49ZM568.684 145.36C568.141 145.36 567.686 145.191 567.32 144.854C566.968 144.502 566.792 144.069 566.792 143.556C566.792 143.043 566.968 142.617 567.32 142.28C567.686 141.928 568.141 141.752 568.684 141.752C569.226 141.752 569.674 141.928 570.026 142.28C570.392 142.617 570.576 143.043 570.576 143.556C570.576 144.069 570.392 144.502 570.026 144.854C569.674 145.191 569.226 145.36 568.684 145.36ZM570.202 146.812V159H567.122V146.812H570.202ZM576.325 142.72V159H573.245V142.72H576.325ZM582.448 142.72V159H579.368V142.72H582.448ZM590.155 159.198C589.157 159.198 588.263 159.022 587.471 158.67C586.679 158.303 586.048 157.812 585.579 157.196C585.124 156.58 584.875 155.898 584.831 155.15H587.933C587.991 155.619 588.219 156.008 588.615 156.316C589.025 156.624 589.531 156.778 590.133 156.778C590.719 156.778 591.174 156.661 591.497 156.426C591.834 156.191 592.003 155.891 592.003 155.524C592.003 155.128 591.797 154.835 591.387 154.644C590.991 154.439 590.353 154.219 589.473 153.984C588.563 153.764 587.815 153.537 587.229 153.302C586.657 153.067 586.158 152.708 585.733 152.224C585.322 151.74 585.117 151.087 585.117 150.266C585.117 149.591 585.307 148.975 585.689 148.418C586.085 147.861 586.642 147.421 587.361 147.098C588.094 146.775 588.952 146.614 589.935 146.614C591.387 146.614 592.545 146.981 593.411 147.714C594.276 148.433 594.753 149.408 594.841 150.64H591.893C591.849 150.156 591.643 149.775 591.277 149.496C590.925 149.203 590.448 149.056 589.847 149.056C589.289 149.056 588.857 149.159 588.549 149.364C588.255 149.569 588.109 149.855 588.109 150.222C588.109 150.633 588.314 150.948 588.725 151.168C589.135 151.373 589.773 151.586 590.639 151.806C591.519 152.026 592.245 152.253 592.817 152.488C593.389 152.723 593.88 153.089 594.291 153.588C594.716 154.072 594.936 154.717 594.951 155.524C594.951 156.228 594.753 156.859 594.357 157.416C593.975 157.973 593.418 158.413 592.685 158.736C591.966 159.044 591.123 159.198 590.155 159.198Z" fill="#636BFF"/>
<rect x="388" y="198.346" width="56" height="6" transform="rotate(-39.1366 388 198.346)" fill="#636BFF"/>
<rect x="392.836" y="216" width="56" height="6" transform="rotate(39.7432 392.836 216)" fill="#636BFF"/>
<mask id="path-60-outside-1_4_1024" maskUnits="userSpaceOnUse" x="113" y="177" width="9" height="11" fill="black">
<rect fill="white" x="113" y="177" width="9" height="11"/>
<path d="M114.851 186.668C114.905 186.654 114.956 186.632 115.002 186.602L120.755 182.836C120.824 182.791 120.882 182.729 120.921 182.656C120.961 182.583 120.982 182.501 120.982 182.418C120.982 182.335 120.961 182.253 120.921 182.18C120.882 182.107 120.825 182.045 120.755 182L114.775 178.083C114.721 178.047 114.659 178.022 114.594 178.009C114.53 177.997 114.463 177.997 114.399 178.01C114.335 178.024 114.273 178.049 114.219 178.086C114.164 178.123 114.118 178.171 114.082 178.226C114.046 178.281 114.021 178.342 114.009 178.407C113.996 178.472 113.997 178.538 114.011 178.603C114.024 178.667 114.05 178.728 114.088 178.782C114.125 178.837 114.172 178.883 114.228 178.919L119.568 182.417L114.454 185.765C114.355 185.83 114.283 185.927 114.249 186.041C114.215 186.154 114.223 186.276 114.27 186.384C114.318 186.493 114.402 186.581 114.509 186.632C114.615 186.684 114.736 186.697 114.851 186.668H114.851Z"/>
</mask>
<path d="M114.851 186.668C114.905 186.654 114.956 186.632 115.002 186.602L120.755 182.836C120.824 182.791 120.882 182.729 120.921 182.656C120.961 182.583 120.982 182.501 120.982 182.418C120.982 182.335 120.961 182.253 120.921 182.18C120.882 182.107 120.825 182.045 120.755 182L114.775 178.083C114.721 178.047 114.659 178.022 114.594 178.009C114.53 177.997 114.463 177.997 114.399 178.01C114.335 178.024 114.273 178.049 114.219 178.086C114.164 178.123 114.118 178.171 114.082 178.226C114.046 178.281 114.021 178.342 114.009 178.407C113.996 178.472 113.997 178.538 114.011 178.603C114.024 178.667 114.05 178.728 114.088 178.782C114.125 178.837 114.172 178.883 114.228 178.919L119.568 182.417L114.454 185.765C114.355 185.83 114.283 185.927 114.249 186.041C114.215 186.154 114.223 186.276 114.27 186.384C114.318 186.493 114.402 186.581 114.509 186.632C114.615 186.684 114.736 186.697 114.851 186.668H114.851Z" fill="#2F2E41"/>
<path d="M114.851 186.668V187.668H114.975L115.096 187.637L114.851 186.668ZM115.002 186.602L114.454 185.765L114.453 185.766L115.002 186.602ZM120.755 182.836L120.209 181.998L120.207 181.999L120.755 182.836ZM120.755 182L120.207 182.836L120.209 182.837L120.755 182ZM114.775 178.083L114.224 178.917L114.228 178.92L114.775 178.083ZM114.228 178.919L114.775 178.082L114.772 178.08L114.228 178.919ZM119.568 182.417L120.116 183.254L121.394 182.417L120.116 181.581L119.568 182.417ZM114.454 185.765L115.002 186.602L115.002 186.602L114.454 185.765ZM114.851 186.668V185.668H114.726L114.605 185.699L114.851 186.668ZM115.096 187.637C115.258 187.597 115.411 187.529 115.551 187.437L114.453 185.766C114.5 185.735 114.551 185.712 114.606 185.699L115.096 187.637ZM115.549 187.438L121.303 183.673L120.207 181.999L114.454 185.765L115.549 187.438ZM121.301 183.674C121.51 183.537 121.682 183.351 121.8 183.132L120.042 182.179C120.082 182.106 120.139 182.044 120.209 181.998L121.301 183.674ZM121.8 183.132C121.919 182.913 121.981 182.668 121.982 182.418L119.982 182.417C119.982 182.334 120.002 182.252 120.042 182.179L121.8 183.132ZM121.982 182.418C121.982 182.169 121.919 181.923 121.801 181.704L120.042 182.656C120.002 182.583 119.982 182.501 119.982 182.417L121.982 182.418ZM121.801 181.704C121.682 181.485 121.511 181.299 121.302 181.162L120.209 182.837C120.139 182.791 120.081 182.729 120.042 182.656L121.801 181.704ZM121.303 181.163L115.323 177.246L114.228 178.92L120.207 182.836L121.303 181.163ZM115.327 177.249C115.163 177.14 114.978 177.065 114.784 177.027L114.405 178.991C114.34 178.978 114.279 178.953 114.224 178.917L115.327 177.249ZM114.784 177.027C114.591 176.99 114.391 176.991 114.197 177.031L114.601 178.99C114.536 179.003 114.469 179.003 114.405 178.991L114.784 177.027ZM114.197 177.031C114.004 177.071 113.82 177.148 113.657 177.259L114.781 178.914C114.726 178.951 114.665 178.976 114.601 178.99L114.197 177.031ZM113.657 177.259C113.494 177.37 113.354 177.512 113.245 177.678L114.918 178.774C114.882 178.829 114.835 178.876 114.781 178.914L113.657 177.259ZM113.245 177.678C113.137 177.843 113.063 178.028 113.026 178.222L114.991 178.592C114.979 178.657 114.954 178.719 114.918 178.774L113.245 177.678ZM113.026 178.222C112.989 178.416 112.991 178.615 113.032 178.808L114.989 178.397C115.003 178.461 115.004 178.528 114.991 178.592L113.026 178.222ZM113.032 178.808C113.073 179.002 113.151 179.185 113.263 179.348L114.912 178.217C114.95 178.271 114.976 178.332 114.989 178.397L113.032 178.808ZM113.263 179.348C113.375 179.511 113.517 179.65 113.683 179.758L114.772 178.08C114.827 178.116 114.875 178.162 114.912 178.217L113.263 179.348ZM113.68 179.755L119.021 183.254L120.116 181.581L114.775 178.082L113.68 179.755ZM119.021 181.58L113.907 184.928L115.002 186.602L120.116 183.254L119.021 181.58ZM113.907 184.928C113.61 185.122 113.392 185.416 113.29 185.756L115.207 186.326C115.174 186.439 115.101 186.537 115.002 186.602L113.907 184.928ZM113.29 185.756C113.189 186.096 113.212 186.461 113.355 186.786L115.186 185.982C115.234 186.091 115.241 186.212 115.207 186.326L113.29 185.756ZM113.355 186.786C113.497 187.111 113.751 187.375 114.07 187.531L114.948 185.734C115.054 185.786 115.138 185.874 115.186 185.982L113.355 186.786ZM114.07 187.531C114.388 187.687 114.752 187.725 115.096 187.637L114.605 185.699C114.72 185.669 114.841 185.682 114.948 185.734L114.07 187.531ZM114.851 187.668H114.851V185.668H114.851V187.668Z" fill="#2F2E41" mask="url(#path-60-outside-1_4_1024)"/>
<mask id="path-62-outside-2_4_1024" maskUnits="userSpaceOnUse" x="94" y="177" width="9" height="11" fill="black">
<rect fill="white" x="94" y="177" width="9" height="11"/>
<path d="M101.588 186.667C101.685 186.642 101.772 186.59 101.838 186.515C101.904 186.441 101.947 186.349 101.961 186.25C101.974 186.151 101.958 186.051 101.914 185.961C101.87 185.872 101.801 185.798 101.714 185.748L96.4111 182.708L101.537 178.901C101.589 178.862 101.634 178.812 101.667 178.756C101.701 178.7 101.723 178.637 101.733 178.572C101.743 178.508 101.739 178.441 101.723 178.378C101.707 178.314 101.679 178.254 101.64 178.202C101.601 178.149 101.551 178.105 101.495 178.071C101.439 178.037 101.376 178.015 101.312 178.005C101.247 177.996 101.18 177.999 101.117 178.015C101.053 178.031 100.993 178.059 100.941 178.099L95.2021 182.361C95.1354 182.411 95.0821 182.476 95.0469 182.551C95.0118 182.626 94.996 182.709 95.0009 182.792C95.0057 182.875 95.0312 182.955 95.0749 183.026C95.1186 183.096 95.1792 183.155 95.2513 183.196L101.217 186.616C101.329 186.68 101.462 186.699 101.588 186.667Z"/>
</mask>
<path d="M101.588 186.667C101.685 186.642 101.772 186.59 101.838 186.515C101.904 186.441 101.947 186.349 101.961 186.25C101.974 186.151 101.958 186.051 101.914 185.961C101.87 185.872 101.801 185.798 101.714 185.748L96.4111 182.708L101.537 178.901C101.589 178.862 101.634 178.812 101.667 178.756C101.701 178.7 101.723 178.637 101.733 178.572C101.743 178.508 101.739 178.441 101.723 178.378C101.707 178.314 101.679 178.254 101.64 178.202C101.601 178.149 101.551 178.105 101.495 178.071C101.439 178.037 101.376 178.015 101.312 178.005C101.247 177.996 101.18 177.999 101.117 178.015C101.053 178.031 100.993 178.059 100.941 178.099L95.2021 182.361C95.1354 182.411 95.0821 182.476 95.0469 182.551C95.0118 182.626 94.996 182.709 95.0009 182.792C95.0057 182.875 95.0312 182.955 95.0749 183.026C95.1186 183.096 95.1792 183.155 95.2513 183.196L101.217 186.616C101.329 186.68 101.462 186.699 101.588 186.667Z" fill="#2F2E41"/>
<path d="M101.588 186.667L101.343 185.697L101.342 185.697L101.588 186.667ZM101.714 185.748L102.212 184.881L102.212 184.881L101.714 185.748ZM96.4111 182.708L95.8148 181.905L94.5888 182.816L95.9137 183.575L96.4111 182.708ZM101.537 178.901L102.133 179.703L102.133 179.703L101.537 178.901ZM100.941 178.099L101.537 178.901L101.537 178.901L100.941 178.099ZM95.2021 182.361L95.7975 183.165L95.7984 183.164L95.2021 182.361ZM95.2513 183.196L95.7486 182.328L95.7482 182.328L95.2513 183.196ZM101.217 186.616L101.714 185.748L101.714 185.748L101.217 186.616ZM101.833 187.636C102.123 187.563 102.384 187.405 102.583 187.182L101.093 185.849C101.159 185.774 101.246 185.722 101.343 185.697L101.833 187.636ZM102.583 187.182C102.783 186.959 102.911 186.682 102.951 186.386L100.97 186.114C100.984 186.015 101.026 185.923 101.093 185.849L102.583 187.182ZM102.951 186.386C102.992 186.09 102.943 185.788 102.812 185.52L101.017 186.403C100.973 186.313 100.956 186.213 100.97 186.114L102.951 186.386ZM102.812 185.52C102.68 185.252 102.471 185.03 102.212 184.881L101.217 186.616C101.13 186.566 101.061 186.492 101.017 186.403L102.812 185.52ZM102.212 184.881L96.9085 181.84L95.9137 183.575L101.217 186.616L102.212 184.881ZM97.0074 183.511L102.133 179.703L100.94 178.098L95.8148 181.905L97.0074 183.511ZM102.133 179.703C102.291 179.586 102.425 179.439 102.526 179.269L100.809 178.243C100.843 178.186 100.888 178.137 100.94 178.098L102.133 179.703ZM102.526 179.269C102.627 179.1 102.694 178.913 102.722 178.718L100.744 178.427C100.753 178.362 100.776 178.299 100.809 178.243L102.526 179.269ZM102.722 178.718C102.751 178.524 102.741 178.325 102.693 178.134L100.753 178.622C100.737 178.558 100.734 178.492 100.744 178.427L102.722 178.718ZM102.693 178.134C102.645 177.943 102.56 177.763 102.442 177.605L100.837 178.798C100.798 178.745 100.77 178.686 100.753 178.622L102.693 178.134ZM102.442 177.605C102.325 177.447 102.178 177.314 102.009 177.213L100.982 178.929C100.925 178.895 100.876 178.851 100.837 178.798L102.442 177.605ZM102.009 177.213C101.839 177.111 101.652 177.045 101.457 177.016L101.166 178.995C101.101 178.985 101.038 178.963 100.982 178.929L102.009 177.213ZM101.457 177.016C101.262 176.987 101.064 176.997 100.873 177.045L101.361 178.985C101.297 179.001 101.231 179.004 101.166 178.995L101.457 177.016ZM100.873 177.045C100.682 177.093 100.502 177.178 100.344 177.296L101.537 178.901C101.484 178.941 101.424 178.969 101.361 178.985L100.873 177.045ZM100.344 177.296L94.6058 181.558L95.7984 183.164L101.537 178.901L100.344 177.296ZM94.6066 181.558C94.4065 181.706 94.2464 181.902 94.1409 182.128L95.9529 182.974C95.9177 183.05 95.8643 183.115 95.7975 183.165L94.6066 181.558ZM94.1409 182.128C94.0354 182.354 93.9879 182.602 94.0026 182.851L95.9991 182.733C96.004 182.816 95.9882 182.899 95.9529 182.974L94.1409 182.128ZM94.0026 182.851C94.0173 183.1 94.0937 183.341 94.2249 183.552L95.9249 182.499C95.9687 182.57 95.9942 182.65 95.9991 182.733L94.0026 182.851ZM94.2249 183.552C94.3561 183.764 94.538 183.94 94.7543 184.064L95.7482 182.328C95.8205 182.37 95.8812 182.428 95.9249 182.499L94.2249 183.552ZM94.7539 184.064L100.719 187.483L101.714 185.748L95.7486 182.328L94.7539 184.064ZM100.719 187.483C101.057 187.677 101.456 187.732 101.834 187.636L101.342 185.697C101.468 185.665 101.602 185.684 101.714 185.748L100.719 187.483Z" fill="#2F2E41" mask="url(#path-62-outside-2_4_1024)"/>
<path d="M104.679 174.978L104.679 174.978L112.834 188.386L112.834 188.387L112.407 188.646C112.441 188.702 112.464 188.765 112.474 188.83C112.484 188.895 112.481 188.961 112.466 189.025C112.45 189.088 112.422 189.149 112.384 189.202C112.345 189.255 112.296 189.299 112.24 189.334L104.679 174.978ZM104.679 174.978L104.677 174.976C104.539 174.751 104.317 174.59 104.059 174.528C103.802 174.466 103.531 174.508 103.305 174.646C103.079 174.784 102.917 175.005 102.854 175.262C102.791 175.519 102.833 175.79 102.969 176.017L102.969 176.017L102.97 176.018L111.126 189.427L111.126 189.427C111.237 189.61 111.404 189.752 111.602 189.833C111.799 189.913 112.018 189.928 112.225 189.876C112.322 189.852 112.415 189.813 112.501 189.76L104.679 174.978Z" fill="#2F2E41" stroke="#2F2E41"/>
</g>
<defs>
<clipPath id="clip0_4_1024">
<rect width="711.188" height="669.683" fill="white"/>
</clipPath>
</defs>
</svg>
