<svg width="200" height="200" viewBox="0 0 200 200" fill="none" xmlns="http://www.w3.org/2000/svg">
<path d="M154.167 79.2499C147.917 77.0975 142.401 73.2274 138.25 68.0833C133.675 62.3519 127.85 57.7427 121.221 54.6085C114.591 51.4742 107.332 49.8978 100 49.9999C90.1364 49.3014 80.3715 52.3436 72.6501 58.5208C64.9286 64.698 59.817 73.5569 58.3333 83.3333C61.2556 78.4436 65.6538 74.6072 70.895 72.3759C76.1361 70.1447 81.95 69.6337 87.5 70.9166C93.7391 73.1317 99.2465 77.0244 103.417 82.1666C108.016 87.8522 113.852 92.4137 120.481 95.504C127.109 98.5943 134.355 100.132 141.667 99.9999C151.53 100.698 161.295 97.6562 169.017 91.4791C176.738 85.3019 181.85 76.443 183.333 66.6666C180.464 71.6147 176.08 75.5091 170.828 77.7749C165.576 80.0408 159.735 80.5579 154.167 79.2499ZM45.8333 120.75C52.0829 122.902 57.5993 126.773 61.75 131.917C66.3246 137.648 72.1495 142.257 78.7792 145.391C85.4088 148.526 92.6675 150.102 100 150C109.864 150.698 119.628 147.656 127.35 141.479C135.071 135.302 140.183 126.443 141.667 116.667C138.744 121.556 134.346 125.393 129.105 127.624C123.864 129.855 118.05 130.366 112.5 129.083C106.261 126.868 100.753 122.976 96.5833 117.833C91.9713 112.162 86.1329 107.61 79.5076 104.521C72.8822 101.432 65.6425 99.8864 58.3333 99.9999C48.4697 99.3014 38.7049 102.344 30.9834 108.521C23.2619 114.698 18.1503 123.557 16.6667 133.333C19.5359 128.385 23.9201 124.491 29.1719 122.225C34.4238 119.959 40.2651 119.442 45.8333 120.75Z" fill="#0066FF"/>
</svg>
