<svg width="300" height="200" viewBox="0 0 300 200" fill="none" xmlns="http://www.w3.org/2000/svg">
<g clip-path="url(#clip0_9_1304)">
<path d="M84.543 72.6364C84.4657 75.9788 84.8355 79.3155 85.6404 82.5364C86.527 85.2908 87.5945 87.9686 88.8343 90.548C89.2782 91.3107 89.5203 92.1975 89.533 93.1066C89.533 94.2187 88.9341 95.332 87.6371 96.4435L81.3514 101.116C80.593 101.725 79.6912 102.072 78.7575 102.116C77.621 102.029 76.5542 101.474 75.7643 100.559C74.4194 98.9487 73.2162 97.1981 72.1711 95.3314C71.1736 93.4404 70.1749 91.3256 69.0782 88.7682C61.2956 99.0002 51.5173 104.116 39.7431 104.116C31.3591 104.116 24.6769 101.446 19.788 96.1045C14.899 90.7635 12.4043 83.6485 12.4043 74.7499C12.4043 65.295 15.3975 57.6198 21.4842 51.8355C27.5709 46.0513 35.6521 43.1589 45.9291 43.1589C49.4685 43.1911 53.0019 43.4885 56.5055 44.049C60.1973 44.6054 63.989 45.4949 67.9797 46.4964V38.3761C67.9797 29.9194 66.3827 24.0271 63.2903 20.5783C60.0964 17.1302 54.7095 15.4617 47.0264 15.4617C43.3955 15.4615 39.7776 15.947 36.2503 16.9076C32.5824 17.8818 28.9813 19.1457 25.4743 20.6896C24.3396 21.2556 23.1731 21.7385 21.9821 22.1355C21.4654 22.3254 20.9284 22.4377 20.3851 22.4693C18.9883 22.4693 18.2897 21.3572 18.2897 19.0211V13.5707C18.2897 11.7904 18.4893 10.4551 18.9883 9.67749C19.7412 8.66356 20.699 7.863 21.783 7.34142C25.785 5.13392 30.0042 3.45414 34.3551 2.33609C39.4393 0.881718 44.6716 0.171241 49.9203 0.222564C61.796 0.222564 70.4744 3.22563 76.062 9.2324C81.5499 15.2392 84.3434 24.3603 84.3434 36.5964V72.6364H84.543ZM44.0338 89.544C47.5341 89.501 51.0049 88.8248 54.3108 87.5417C57.973 86.1293 61.2405 83.6744 63.7894 80.4203C65.3978 78.37 66.5588 75.9327 67.1818 73.2989C67.8673 70.1306 68.2023 66.8806 68.1793 63.6214V58.9544C65.1541 58.1334 62.0899 57.5021 59.0013 57.0634C55.89 56.624 52.7571 56.4021 49.6209 56.3989C42.9359 56.3989 38.0469 57.8448 34.7543 60.8498C31.4617 63.8548 29.8654 68.0799 29.8654 73.6416C29.8654 78.8695 31.0631 82.7627 33.5572 85.4326C35.9526 88.2138 39.4443 89.5484 44.0338 89.5484V89.544ZM124.155 101.558C122.358 101.558 121.161 101.224 120.363 100.445C119.564 99.7778 118.866 98.22 118.267 96.1071L94.8189 10.1226C94.3644 8.68326 94.0631 7.1894 93.9212 5.6717C93.9212 3.89136 94.7197 2.89054 96.3166 2.89054H106.095C107.99 2.89054 109.288 3.22436 109.986 4.00263C110.785 4.67026 111.383 6.22806 111.982 8.34096L128.745 81.9781L144.309 8.34286C144.808 6.11743 145.407 4.67217 146.205 4.00453C147.004 3.3369 148.4 2.89245 150.198 2.89245H158.182C160.078 2.89245 161.376 3.22627 162.175 4.00453C162.973 4.67217 163.671 6.22997 164.071 8.34286L179.835 82.8702L197.091 8.34286C197.69 6.11743 198.388 4.67217 199.087 4.00453C199.886 3.3369 201.183 2.89245 202.979 2.89245H212.258C213.855 2.89245 214.753 3.78263 214.753 5.67361C214.73 6.2721 214.663 6.86749 214.553 7.45396C214.397 8.40282 214.163 9.33375 213.855 10.2351L189.808 96.2196C189.21 98.4442 188.511 99.8903 187.713 100.558C186.585 101.363 185.259 101.752 183.921 101.67H175.34C173.444 101.67 172.146 101.336 171.348 100.558C170.549 99.7797 169.851 98.3325 169.452 96.1071L153.987 24.3603L138.621 95.9958C138.122 98.2213 137.524 99.6665 136.725 100.447C135.927 101.227 134.53 101.559 132.733 101.559L124.155 101.558ZM252.368 104.561C247.193 104.567 242.036 103.895 237.002 102.558C232.013 101.223 228.122 99.7772 225.528 98.1074C223.931 97.1066 222.834 95.9939 222.435 94.9918C222.046 94.0098 221.843 92.9495 221.836 91.8762V86.2071C221.836 83.871 222.635 82.7589 224.131 82.7589C224.742 82.7612 225.349 82.874 225.927 83.0927C226.526 83.3153 227.424 83.7604 228.422 84.2048C231.946 85.9329 235.625 87.238 239.398 88.0981C243.306 88.9825 247.283 89.4298 251.271 89.4333C257.557 89.4333 262.446 88.21 265.839 85.7626C267.464 84.6694 268.8 83.1156 269.712 81.2595C270.624 79.4033 271.078 77.3111 271.029 75.1956C271.064 73.7636 270.844 72.3381 270.381 71.0016C269.919 69.665 269.224 68.444 268.335 67.4091C266.539 65.2956 263.145 63.4033 258.258 61.623L243.787 56.6183C236.503 54.0603 231.115 50.2784 227.823 45.2718C224.611 40.6554 222.857 34.985 222.834 29.1424C222.753 24.8355 223.682 20.5795 225.528 16.7951C227.31 13.2164 229.761 10.106 232.714 7.67396C235.824 5.04929 239.342 3.08766 243.091 1.88783C247.176 0.577169 251.41 -0.0588625 255.66 2.04485e-05C257.895 -0.0180407 260.128 0.130654 262.345 0.445108C264.64 0.778923 266.737 1.22401 268.831 1.66846C270.827 2.22482 272.722 2.78054 274.518 3.44881C275.974 3.9509 277.379 4.622 278.709 5.45107C279.884 6.11155 280.908 7.06286 281.702 8.23223C282.351 9.31466 282.666 10.6031 282.6 11.9029V17.1308C282.6 19.4669 281.801 20.6915 280.305 20.6915C279.506 20.6915 278.209 20.2464 276.513 19.3562C270.826 16.464 264.44 15.0179 257.356 15.0179C251.668 15.0179 247.179 16.0187 244.086 18.1335C240.993 20.2483 239.396 23.4746 239.396 28.0335C239.369 29.5106 239.621 30.9775 240.137 32.3384C240.653 33.6993 241.42 34.9235 242.39 35.9313C244.386 38.0448 248.077 40.1583 253.365 42.0493L267.534 47.0521C274.72 49.6107 279.906 53.1702 282.999 57.7304C286.045 62.2051 287.66 67.6869 287.589 73.3034C287.64 77.7713 286.752 82.1904 284.995 86.2064C283.224 90.0137 280.74 93.352 277.711 95.9952C274.417 98.8539 270.655 100.97 266.635 102.226C262.014 103.811 257.202 104.599 252.367 104.562L252.368 104.561Z" fill="#252F3E"/>
<path d="M271.226 158.619C238.399 185.649 190.706 199.998 149.697 199.998C92.2256 200.001 40.4413 176.307 1.32999 136.931C-1.76298 133.815 1.03056 129.589 4.72239 132.035C47.0276 159.399 99.2112 175.971 153.19 175.971C189.609 175.971 229.619 167.514 266.437 150.164C271.925 147.383 276.614 154.17 271.228 158.621L271.226 158.619Z" fill="#FF9900"/>
<path d="M284.895 141.268C280.704 135.261 257.157 138.376 246.481 139.822C243.287 140.267 242.789 137.152 245.682 134.817C264.44 120.134 295.271 124.361 298.863 129.255C302.456 134.261 297.866 168.632 280.305 185.095C277.611 187.654 275.017 186.319 276.214 182.982C280.206 171.969 289.086 147.164 284.895 141.268V141.268Z" fill="#FF9900"/>
</g>
<defs>
<clipPath id="clip0_9_1304">
<rect width="300" height="200" fill="white"/>
</clipPath>
</defs>
</svg>
