<svg width="200" height="200" viewBox="0 0 200 200" fill="none" xmlns="http://www.w3.org/2000/svg">
<path d="M180.313 47.9687L104.844 4.53125C103.594 3.75 101.875 3.4375 100 3.4375C98.125 3.4375 96.4063 3.90625 95.1563 4.53125L20.1562 48.125C17.5 49.6875 15.625 53.5937 15.625 56.5625V143.594C15.625 145.312 15.9375 147.344 17.1875 149.062L184.063 52.1875C183.125 50.3125 181.719 48.9062 180.313 47.9687V47.9687Z" fill="#659AD3"/>
<path d="M16.7188 148.906C17.5 150.156 18.5938 151.25 19.6875 151.875L95 195.469C96.25 196.25 97.9687 196.562 99.8437 196.562C101.719 196.562 103.437 196.094 104.687 195.469L179.687 151.875C182.344 150.312 184.219 146.406 184.219 143.438V56.4062C184.219 55 184.062 53.4375 183.281 52.0312L16.7188 148.906V148.906Z" fill="#03599C"/>
<path d="M133.281 118.906C126.719 130.469 114.219 138.281 100 138.281C78.9062 138.281 61.7188 121.094 61.7188 100C61.7188 78.9062 78.9062 61.7188 100 61.7188C114.219 61.7188 126.719 69.5312 133.281 81.25L153.594 69.5312C142.969 50.9375 122.969 38.2812 100 38.2812C65.9375 38.2812 38.2812 65.9375 38.2812 100C38.2812 134.062 65.9375 161.719 100 161.719C122.813 161.719 142.812 149.219 153.437 130.781L133.281 118.906V118.906Z" fill="white"/>
</svg>
