<svg width="200" height="200" viewBox="0 0 200 200" fill="none" xmlns="http://www.w3.org/2000/svg">
<path d="M74.9998 164.286C74.9998 161.31 73.9581 158.78 71.8748 156.696C69.7915 154.613 67.2617 153.571 64.2855 153.571C61.3093 153.571 58.7796 154.613 56.6962 156.696C54.6129 158.78 53.5712 161.31 53.5712 164.286C53.5712 167.262 54.6129 169.792 56.6962 171.875C58.7796 173.958 61.3093 175 64.2855 175C67.2617 175 69.7915 173.958 71.8748 171.875C73.9581 169.792 74.9998 167.262 74.9998 164.286ZM74.9998 35.7143C74.9998 32.7381 73.9581 30.2083 71.8748 28.125C69.7915 26.0417 67.2617 25 64.2855 25C61.3093 25 58.7796 26.0417 56.6962 28.125C54.6129 30.2083 53.5712 32.7381 53.5712 35.7143C53.5712 38.6905 54.6129 41.2202 56.6962 43.3036C58.7796 45.3869 61.3093 46.4286 64.2855 46.4286C67.2617 46.4286 69.7915 45.3869 71.8748 43.3036C73.9581 41.2202 74.9998 38.6905 74.9998 35.7143ZM146.428 50C146.428 47.0238 145.387 44.494 143.303 42.4107C141.22 40.3274 138.69 39.2857 135.714 39.2857C132.738 39.2857 130.208 40.3274 128.125 42.4107C126.041 44.494 125 47.0238 125 50C125 52.9762 126.041 55.5059 128.125 57.5893C130.208 59.6726 132.738 60.7143 135.714 60.7143C138.69 60.7143 141.22 59.6726 143.303 57.5893C145.387 55.5059 146.428 52.9762 146.428 50ZM157.143 50C157.143 53.869 156.175 57.4591 154.241 60.7701C152.306 64.0811 149.702 66.6667 146.428 68.5268C146.28 89.8809 137.872 105.283 121.205 114.732C116.146 117.56 108.594 120.573 98.5489 123.772C89.0251 126.749 82.7193 129.39 79.6315 131.696C76.5437 134.003 74.9998 137.723 74.9998 142.857V145.759C78.2736 147.619 80.8778 150.205 82.8123 153.516C84.7468 156.827 85.7141 160.417 85.7141 164.286C85.7141 170.238 83.6307 175.298 79.4641 179.464C75.2974 183.631 70.2379 185.714 64.2855 185.714C58.3331 185.714 53.2736 183.631 49.1069 179.464C44.9403 175.298 42.8569 170.238 42.8569 164.286C42.8569 160.417 43.8242 156.827 45.7587 153.516C47.6932 150.205 50.2974 147.619 53.5712 145.759V54.2411C50.2974 52.3809 47.6932 49.7954 45.7587 46.4844C43.8242 43.1734 42.8569 39.5833 42.8569 35.7143C42.8569 29.7619 44.9403 24.7024 49.1069 20.5357C53.2736 16.369 58.3331 14.2857 64.2855 14.2857C70.2379 14.2857 75.2974 16.369 79.4641 20.5357C83.6307 24.7024 85.7141 29.7619 85.7141 35.7143C85.7141 39.5833 84.7468 43.1734 82.8123 46.4844C80.8778 49.7954 78.2736 52.3809 74.9998 54.2411V109.71C79.0176 107.775 84.7468 105.655 92.1873 103.348C96.2796 102.083 99.5348 100.986 101.953 100.056C104.371 99.1257 106.994 97.9725 109.821 96.596C112.649 95.2195 114.844 93.75 116.406 92.1875C117.969 90.625 119.475 88.7277 120.926 86.4955C122.377 84.2634 123.419 81.6778 124.051 78.7388C124.684 75.7998 125 72.3958 125 68.5268C121.726 66.6667 119.122 64.0811 117.187 60.7701C115.253 57.4591 114.286 53.869 114.286 50C114.286 44.0476 116.369 38.9881 120.536 34.8214C124.702 30.6548 129.762 28.5714 135.714 28.5714C141.666 28.5714 146.726 30.6548 150.893 34.8214C155.059 38.9881 157.143 44.0476 157.143 50Z" fill="#2C59F8"/>
</svg>
