<svg width="200" height="250" viewBox="0 0 200 250" fill="none" xmlns="http://www.w3.org/2000/svg">
<g clip-path="url(#clip0_9_1273)">
<path d="M0 201.55L1.65859 199.434L80.0992 63.767L80.2648 62.3307L45.6875 3.12805C42.7891 -1.83108 34.6328 -0.577057 33.6828 4.97455L0 201.55Z" fill="#FFC24A"/>
<path d="M0.979004 199.937L2.23291 197.707L79.8524 63.4617L45.3603 4.01832C42.4938 -0.888822 35.2142 0.362353 34.2735 5.85557L0.979004 199.937Z" fill="#FFA712"/>
<g filter="url(#filter0_i_9_1273)">
<path d="M0.979004 199.937L2.23291 197.707L79.8524 63.4617L45.3603 4.01832C42.4938 -0.888822 35.2142 0.362353 34.2735 5.85557L0.979004 199.937Z" fill="#D06C06"/>
</g>
<path d="M105.473 107.112L131.219 83.0781L105.465 38.2651C103.02 34.023 96.1945 34.0102 93.7758 38.2651L80.0156 62.1827V64.2193L105.472 107.112H105.473Z" fill="#F4BD62"/>
<path d="M105.013 106.111L130.044 82.7448L105.013 39.3012C102.637 35.1774 96.8625 34.7451 94.511 38.881L80.679 63.1704L80.2649 64.4123L105.013 106.111V106.111Z" fill="#FFA50E"/>
<g filter="url(#filter1_i_9_1273)">
<path d="M105.013 106.111L130.044 82.7448L105.013 39.3012C102.637 35.1774 96.8625 34.7451 94.511 38.881L80.679 63.1704L80.2649 64.4123L105.013 106.111V106.111Z" fill="#F08200"/>
</g>
<path d="M0 201.55L0.751562 200.861L3.48281 199.85L103.855 108.7L105.127 105.544L80.0883 62.0531L0 201.55Z" fill="#F6820C"/>
<path d="M108.688 247.519L199.528 201.341L173.588 55.7181C172.776 51.1621 166.644 49.3611 163.066 52.6276L0 201.55L90.3188 247.516C93.1261 248.944 96.2877 249.695 99.503 249.695C102.718 249.696 105.88 248.947 108.688 247.519" fill="#FDE068"/>
<path d="M198.714 200.954L172.97 56.4367C172.166 51.9148 167.066 50.0441 163.515 53.2863L1.00781 201.267L90.3352 246.776C93.1211 248.194 96.2586 248.939 99.4494 248.94C102.64 248.94 105.778 248.197 108.565 246.781L198.715 200.953L198.714 200.954Z" fill="#FCCA3F"/>
<path d="M108.687 246.158C105.88 247.586 102.718 248.335 99.5026 248.334C96.2875 248.334 93.126 247.583 90.3187 246.155L0.727295 200.85L0.000732422 201.55L90.3187 247.516C93.1261 248.944 96.2877 249.695 99.503 249.695C102.718 249.696 105.88 248.947 108.688 247.519L199.528 201.341L199.305 200.093L108.688 246.159L108.687 246.158Z" fill="#EEAB37"/>
</g>
<defs>
<filter id="filter0_i_9_1273" x="0.979004" y="0.951599" width="78.8735" height="198.985" filterUnits="userSpaceOnUse" color-interpolation-filters="sRGB">
<feFlood flood-opacity="0" result="BackgroundImageFix"/>
<feBlend mode="normal" in="SourceGraphic" in2="BackgroundImageFix" result="shape"/>
<feColorMatrix in="SourceAlpha" type="matrix" values="0 0 0 0 0 0 0 0 0 0 0 0 0 0 0 0 0 0 127 0" result="hardAlpha"/>
<feOffset/>
<feGaussianBlur stdDeviation="124.619"/>
<feComposite in2="hardAlpha" operator="arithmetic" k2="-1" k3="1"/>
<feColorMatrix type="matrix" values="0 0 0 0 0 0 0 0 0 0 0 0 0 0 0 0 0 0 0.06 0"/>
<feBlend mode="normal" in2="shape" result="effect1_innerShadow_9_1273"/>
</filter>
<filter id="filter1_i_9_1273" x="80.2649" y="-13.8622" width="56.8999" height="119.973" filterUnits="userSpaceOnUse" color-interpolation-filters="sRGB">
<feFlood flood-opacity="0" result="BackgroundImageFix"/>
<feBlend mode="normal" in="SourceGraphic" in2="BackgroundImageFix" result="shape"/>
<feColorMatrix in="SourceAlpha" type="matrix" values="0 0 0 0 0 0 0 0 0 0 0 0 0 0 0 0 0 0 127 0" result="hardAlpha"/>
<feOffset dx="7.12109" dy="-64.0898"/>
<feGaussianBlur stdDeviation="24.9238"/>
<feComposite in2="hardAlpha" operator="arithmetic" k2="-1" k3="1"/>
<feColorMatrix type="matrix" values="0 0 0 0 0 0 0 0 0 0 0 0 0 0 0 0 0 0 0.09 0"/>
<feBlend mode="normal" in2="shape" result="effect1_innerShadow_9_1273"/>
</filter>
<clipPath id="clip0_9_1273">
<rect width="200" height="250" fill="white"/>
</clipPath>
</defs>
</svg>
