<svg width="200" height="200" viewBox="0 0 200 200" fill="none" xmlns="http://www.w3.org/2000/svg">
<path d="M3.125 1.5625V196.875H198.438V1.5625H3.125ZM106.436 167.989C103.553 173.847 98.05 177.695 91.6734 179.553C81.875 181.803 72.5031 180.52 65.5312 176.336C60.8656 173.473 57.2219 169.067 54.7484 163.991L69.6234 154.881C69.7531 154.936 70.1438 155.642 70.6656 156.555C72.5625 159.733 74.1984 161.983 77.4141 163.563C80.5734 164.641 87.5094 165.33 90.1875 159.77C91.8234 156.942 91.3031 147.852 91.3031 137.794C91.3016 121.989 91.375 106.25 91.375 90.625H109.67C109.67 107.812 109.764 124.091 109.67 140.863C109.709 151.144 110.602 160.309 106.436 167.989ZM182.333 162.82C175.973 184.573 140.517 185.28 126.348 170.908C123.355 167.525 121.478 165.758 119.692 161.853C127.222 157.522 127.222 157.522 134.548 153.283C138.528 159.4 142.208 162.764 148.828 164.141C157.809 165.238 166.845 162.152 164.819 152.612C162.736 144.822 146.428 142.927 135.33 134.595C124.063 127.028 121.422 108.641 130.681 98.1344C133.767 94.2484 139.03 91.3484 144.552 89.9547L150.314 89.2094C161.378 88.9859 168.294 91.9078 173.37 97.5766C174.783 99.0078 175.936 100.552 178.092 103.897C172.198 107.653 172.217 107.617 163.775 113.083C161.972 109.198 158.98 106.761 155.817 105.702C150.908 104.214 144.717 105.831 143.433 111.019C142.987 112.617 143.08 114.105 143.788 116.745C145.777 121.281 152.452 123.253 158.439 126.005C175.675 132.995 181.495 140.491 182.927 149.413C184.305 157.094 182.594 162.077 182.333 162.82V162.82Z" fill="#F0DB4F"/>
</svg>
