<svg width="200" height="200" viewBox="0 0 200 200" fill="none" xmlns="http://www.w3.org/2000/svg">
<path d="M104.55 200L99.225 198.175C99.225 198.175 99.875 171.033 90.1334 169.092C83.6334 161.558 91.175 -150.392 114.55 168.05C114.55 168.05 106.5 172.083 105.067 178.967C103.517 185.717 104.55 200 104.55 200Z" fill="white"/>
<path d="M104.55 200L99.225 198.175C99.225 198.175 99.875 171.033 90.1334 169.092C83.6334 161.558 91.175 -150.392 114.55 168.05C114.55 168.05 106.5 172.083 105.067 178.967C103.517 185.717 104.55 200 104.55 200Z" fill="#A6A385"/>
<path d="M107.408 173.767C107.408 173.767 154.033 143.117 143.117 79.35C132.6 33 107.8 17.7917 105.067 11.95C102.075 7.80003 99.225 0.525024 99.225 0.525024L101.175 129.475C101.183 129.6 97.15 168.958 107.408 173.767Z" fill="white"/>
<path d="M107.408 173.767C107.408 173.767 154.033 143.117 143.117 79.35C132.6 33 107.8 17.7917 105.067 11.95C102.075 7.80003 99.225 0.525024 99.225 0.525024L101.175 129.475C101.183 129.6 97.15 168.958 107.408 173.767Z" fill="#499D4A"/>
<path d="M96.5 175.458C96.5 175.458 52.7333 145.583 55.3333 92.9917C57.8 40.4 88.7167 14.55 94.6833 9.875C98.575 5.70833 98.7083 4.15833 98.9667 0C101.7 5.84167 101.183 87.4 101.567 97.0083C102.733 134.025 99.4833 168.442 96.5 175.458Z" fill="white"/>
<path d="M96.5 175.458C96.5 175.458 52.7333 145.583 55.3333 92.9917C57.8 40.4 88.7167 14.55 94.6833 9.875C98.575 5.70833 98.7083 4.15833 98.9667 0C101.7 5.84167 101.183 87.4 101.567 97.0083C102.733 134.025 99.4833 168.442 96.5 175.458Z" fill="#58AA50"/>
<path d="M100 154.542C99.0084 165.008 97.7334 172.558 96.5001 175.45C96.5001 175.45 96.3 175.317 95.925 175.042C98.9917 182.225 99.2334 193.658 99.2334 197.133C99.2334 197.792 99.225 198.167 99.225 198.167L100 198.442V154.542Z" fill="#918E74"/>
<path d="M99.225 0.525024V0.850024C99.525 2.12502 99.7833 4.37502 100 7.36669V2.38336C99.5166 1.25002 99.225 0.525024 99.225 0.525024Z" fill="#408940"/>
<path d="M98.9667 0C98.7084 4.15833 98.5751 5.70833 94.6834 9.86667C88.7084 14.5417 57.7917 40.3833 55.3334 92.9833C55.2584 94.525 55.2167 96.0417 55.2251 97.55C55.2667 147.308 96.5084 175.458 96.5084 175.458C97.7417 172.567 99.0167 165.017 100.008 154.55V7.36667C99.7917 4.375 99.5334 2.125 99.2417 0.858333C99.1501 0.483333 99.0584 0.2 98.9667 0Z" fill="#4D9446"/>
</svg>
