<svg width="200" height="200" viewBox="0 0 200 200" fill="none" xmlns="http://www.w3.org/2000/svg">
<g clip-path="url(#clip0_9_1286)">
<path d="M199.675 99.6167L199.533 99.5583L199.942 99.9667C200.117 99.9667 199.675 99.6167 199.675 99.6167ZM193.933 104.317V104.683L194.717 105.017L193.933 104.317Z" fill="black"/>
<path d="M124.442 135.633V135.667C124.55 135.717 124.5 135.675 124.442 135.633Z" fill="url(#paint0_linear_9_1286)"/>
<path d="M22.8583 124.833L46.05 114.967L46.3083 114.892L4.44995 106.15L22.8583 124.833Z" fill="url(#paint1_linear_9_1286)"/>
<path d="M57.3833 102.608C57.8416 102.608 58.3 102.633 58.75 102.675L58.7 102.667C59.6709 102.538 60.6547 102.541 61.625 102.675L61.5666 102.667L84.4083 67.125C82.6242 65.2776 81.6264 62.81 81.625 60.2417C81.536 59.4746 81.5388 58.6997 81.6333 57.9334L81.625 57.9834L53.8916 45.15L31.575 66.8834L56.075 102.667C56.4666 102.625 56.925 102.608 57.3833 102.608V102.608Z" fill="url(#paint2_linear_9_1286)"/>
<path d="M134.658 70.1083L139.45 40.425L121.658 21.7416L100.733 53.95V54.3916C101.642 55.7583 102.267 57.3833 102.467 59.1416L102.475 59.1916L131.683 71.5833C132.525 70.9333 133.517 70.425 134.592 70.1166L134.658 70.1083V70.1083Z" fill="url(#paint3_linear_9_1286)"/>
<path d="M194.392 105.042L144.95 83.9C143.567 85.7334 141.5 86.9834 139.142 87.2917L139.1 87.3L133.692 120.392C135.242 121.967 136.217 124.125 136.225 126.5L166.567 132.875L194.383 105.2V105.042H194.392Z" fill="url(#paint4_linear_9_1286)"/>
<path d="M169.108 68.9667L147.825 77.7L200 99.9L169.108 68.9667Z" fill="url(#paint5_linear_9_1286)"/>
<path d="M48.4833 109.042H48.5C49.044 108.022 49.7222 107.081 50.5167 106.242L50.5 106.25L27.3833 71.675L0 98.3L48.4833 109.042V109.042Z" fill="url(#paint6_linear_9_1286)"/>
<path d="M128.717 78.6583C128.678 78.2118 128.68 77.7626 128.725 77.3166V77.35L128.733 77.275C128.733 77.1783 128.701 77.0845 128.642 77.0083L101.342 65.3833C99.525 68.1333 96.45 69.9333 92.95 69.9333L92.6083 69.925H90.9666L68.3833 104.85L128.717 78.6583Z" fill="url(#paint7_linear_9_1286)"/>
<path d="M27.825 129.117L38.1166 139.333L49.7999 121.175L49.0166 120.383L27.825 129.117Z" fill="url(#paint8_linear_9_1286)"/>
<path d="M135.083 132.608C134.092 133.875 132.792 134.858 131.3 135.458L131.242 135.483L124.883 174.95L161.942 138.192C161.942 138.192 161.858 138.358 161.767 138.358V138.108L135.083 132.608V132.608Z" fill="url(#paint9_linear_9_1286)"/>
<path d="M141.45 70.8917C142.433 71.3917 143.267 72.0333 143.975 72.8083L143.983 72.8167L163.6 64.075L145.292 45.925L141.192 70.625L141.45 70.8917Z" fill="url(#paint10_linear_9_1286)"/>
<path d="M99.1582 200L109.1 190.133L64.0082 124.75C62.6332 125.4 61.0082 125.783 59.3082 125.792H59.2582C57.9332 125.792 56.6499 125.567 55.4666 125.158L55.5499 125.183L42.6499 143.958L99.1582 200Z" fill="url(#paint11_linear_9_1286)"/>
<path d="M69.7749 111.658C70.0582 112.092 70.3416 112.608 70.5999 113.142L70.6416 113.233L119.742 123.358C120.445 122.131 121.436 121.092 122.629 120.332C123.822 119.571 125.182 119.111 126.592 118.992H126.625L131.95 86.4333L130.825 85.475L69.7749 111.658V111.658Z" fill="url(#paint12_linear_9_1286)"/>
<path d="M99.5917 0L58.6083 40.2417C58.6083 40.2417 58.525 40.675 58.6083 40.7667L85.65 52.2917C87.6093 50.6691 90.0998 49.829 92.6417 49.9333H92.625C93.8083 49.9417 94.9583 50.1333 96.025 50.4833L95.9417 50.4583L117.042 17.4583L99.5917 0Z" fill="url(#paint13_linear_9_1286)"/>
<path d="M119.317 129.525L119.3 129.467L69.5999 119.25L68.8999 120.383L113.992 185.692L116.692 182.983L124.367 135.575L124.45 135.633V135.4C123.197 134.886 122.082 134.087 121.191 133.068C120.3 132.048 119.658 130.835 119.317 129.525V129.525Z" fill="url(#paint14_linear_9_1286)"/>
</g>
<defs>
<linearGradient id="paint0_linear_9_1286" x1="124.475" y1="17.6871" x2="124.475" y2="189.618" gradientUnits="userSpaceOnUse">
<stop stop-color="#39C4B6"/>
<stop offset="1" stop-color="#529AC3"/>
</linearGradient>
<linearGradient id="paint1_linear_9_1286" x1="25.3833" y1="17.7084" x2="25.3833" y2="189.608" gradientUnits="userSpaceOnUse">
<stop stop-color="#39C4B6"/>
<stop offset="1" stop-color="#529AC3"/>
</linearGradient>
<linearGradient id="paint2_linear_9_1286" x1="57.9916" y1="17.7084" x2="57.9916" y2="189.608" gradientUnits="userSpaceOnUse">
<stop stop-color="#39C4B6"/>
<stop offset="1" stop-color="#529AC3"/>
</linearGradient>
<linearGradient id="paint3_linear_9_1286" x1="120.092" y1="17.7083" x2="120.092" y2="189.608" gradientUnits="userSpaceOnUse">
<stop stop-color="#39C4B6"/>
<stop offset="1" stop-color="#529AC3"/>
</linearGradient>
<linearGradient id="paint4_linear_9_1286" x1="164.042" y1="17.7084" x2="164.042" y2="189.608" gradientUnits="userSpaceOnUse">
<stop stop-color="#39C4B6"/>
<stop offset="1" stop-color="#529AC3"/>
</linearGradient>
<linearGradient id="paint5_linear_9_1286" x1="173.908" y1="17.7083" x2="173.908" y2="189.608" gradientUnits="userSpaceOnUse">
<stop stop-color="#39C4B6"/>
<stop offset="1" stop-color="#529AC3"/>
</linearGradient>
<linearGradient id="paint6_linear_9_1286" x1="25.2583" y1="17.7084" x2="25.2583" y2="189.608" gradientUnits="userSpaceOnUse">
<stop stop-color="#39C4B6"/>
<stop offset="1" stop-color="#529AC3"/>
</linearGradient>
<linearGradient id="paint7_linear_9_1286" x1="98.55" y1="17.7083" x2="98.55" y2="189.608" gradientUnits="userSpaceOnUse">
<stop stop-color="#39C4B6"/>
<stop offset="1" stop-color="#529AC3"/>
</linearGradient>
<linearGradient id="paint8_linear_9_1286" x1="38.8083" y1="17.7083" x2="38.8083" y2="189.608" gradientUnits="userSpaceOnUse">
<stop stop-color="#39C4B6"/>
<stop offset="1" stop-color="#529AC3"/>
</linearGradient>
<linearGradient id="paint9_linear_9_1286" x1="143.417" y1="17.7084" x2="143.417" y2="189.608" gradientUnits="userSpaceOnUse">
<stop stop-color="#39C4B6"/>
<stop offset="1" stop-color="#529AC3"/>
</linearGradient>
<linearGradient id="paint10_linear_9_1286" x1="152.4" y1="17.7083" x2="152.4" y2="189.608" gradientUnits="userSpaceOnUse">
<stop stop-color="#39C4B6"/>
<stop offset="1" stop-color="#529AC3"/>
</linearGradient>
<linearGradient id="paint11_linear_9_1286" x1="75.8749" y1="17.7083" x2="75.8749" y2="189.608" gradientUnits="userSpaceOnUse">
<stop stop-color="#39C4B6"/>
<stop offset="1" stop-color="#529AC3"/>
</linearGradient>
<linearGradient id="paint12_linear_9_1286" x1="100.858" y1="17.7083" x2="100.858" y2="189.608" gradientUnits="userSpaceOnUse">
<stop stop-color="#39C4B6"/>
<stop offset="1" stop-color="#529AC3"/>
</linearGradient>
<linearGradient id="paint13_linear_9_1286" x1="87.8" y1="17.7083" x2="87.8" y2="189.608" gradientUnits="userSpaceOnUse">
<stop stop-color="#39C4B6"/>
<stop offset="1" stop-color="#529AC3"/>
</linearGradient>
<linearGradient id="paint14_linear_9_1286" x1="96.6666" y1="17.7083" x2="96.6666" y2="189.608" gradientUnits="userSpaceOnUse">
<stop stop-color="#39C4B6"/>
<stop offset="1" stop-color="#529AC3"/>
</linearGradient>
<clipPath id="clip0_9_1286">
<rect width="200" height="200" fill="white"/>
</clipPath>
</defs>
</svg>
