<svg width="520" height="600" viewBox="0 0 703 669" fill="none" xmlns="http://www.w3.org/2000/svg">
<g clip-path="url(#clip0_7_1139)">
<path d="M708.208 252.938H399.433C396.967 252.935 394.603 251.945 392.859 250.184C391.116 248.423 390.135 246.036 390.132 243.546V138.36C390.135 135.87 391.116 133.483 392.859 131.722C394.603 129.962 396.967 128.971 399.433 128.968H708.208C710.674 128.971 713.038 129.962 714.781 131.722C716.525 133.483 717.505 135.87 717.508 138.36V243.546C717.505 246.036 716.525 248.423 714.781 250.184C713.038 251.945 710.674 252.935 708.208 252.938V252.938Z" fill="#3F3D56"/>
<path d="M531.333 188.954H448.704V198.951H531.333V188.954Z" fill="white"/>
<path d="M638.54 200.951C641.718 200.951 644.293 198.265 644.293 194.952C644.293 191.639 641.718 188.954 638.54 188.954C635.363 188.954 632.788 191.639 632.788 194.952C632.788 198.265 635.363 200.951 638.54 200.951Z" fill="#636BFF"/>
<path d="M657.367 200.951C660.544 200.951 663.12 198.265 663.12 194.952C663.12 191.639 660.544 188.954 657.367 188.954C654.19 188.954 651.615 191.639 651.615 194.952C651.615 198.265 654.19 200.951 657.367 200.951Z" fill="#636BFF"/>
<path d="M675.671 200.951C678.559 200.951 680.901 198.265 680.901 194.952C680.901 191.639 678.559 188.954 675.671 188.954C672.783 188.954 670.441 191.639 670.441 194.952C670.441 198.265 672.783 200.951 675.671 200.951Z" fill="#636BFF"/>
<path d="M708.208 399.902H399.433C396.967 399.899 394.603 398.909 392.859 397.148C391.116 395.387 390.135 393 390.132 390.51V285.324C390.135 282.834 391.116 280.447 392.859 278.686C394.603 276.926 396.967 275.935 399.433 275.932H708.208C710.674 275.935 713.038 276.926 714.781 278.686C716.525 280.447 717.505 282.834 717.508 285.324V390.51C717.505 393 716.525 395.387 714.781 397.148C713.038 398.909 710.674 399.899 708.208 399.902V399.902Z" fill="#3F3D56"/>
<path d="M498.909 336.917H416.28V345.915H498.909V336.917Z" fill="white"/>
<path d="M638.54 333.918C641.718 333.918 644.293 331.456 644.293 328.42C644.293 325.383 641.718 322.921 638.54 322.921C635.363 322.921 632.788 325.383 632.788 328.42C632.788 331.456 635.363 333.918 638.54 333.918Z" fill="#636BFF"/>
<path d="M657.367 333.918C660.544 333.918 663.12 331.456 663.12 328.42C663.12 325.383 660.544 322.921 657.367 322.921C654.19 322.921 651.615 325.383 651.615 328.42C651.615 331.456 654.19 333.918 657.367 333.918Z" fill="#636BFF"/>
<path d="M675.671 333.918C678.559 333.918 680.901 331.456 680.901 328.42C680.901 325.383 678.559 322.921 675.671 322.921C672.783 322.921 670.441 325.383 670.441 328.42C670.441 331.456 672.783 333.918 675.671 333.918Z" fill="#636BFF"/>
<path d="M708.208 533.869H399.433C396.967 533.866 394.603 532.876 392.859 531.115C391.116 529.355 390.135 526.967 390.132 524.478V419.291C390.135 416.801 391.116 414.414 392.859 412.654C394.603 410.893 396.967 409.902 399.433 409.9H708.208C710.674 409.902 713.038 410.893 714.781 412.653C716.525 414.414 717.505 416.801 717.508 419.291V524.478C717.505 526.967 716.525 529.355 714.781 531.115C713.038 532.876 710.674 533.866 708.208 533.869V533.869Z" fill="#3F3D56"/>
<path d="M498.909 469.885H416.28V479.882H498.909V469.885Z" fill="white"/>
<path d="M606.117 481.882C609.294 481.882 611.869 479.196 611.869 475.883C611.869 472.571 609.294 469.885 606.117 469.885C602.94 469.885 600.364 472.571 600.364 475.883C600.364 479.196 602.94 481.882 606.117 481.882Z" fill="#636BFF"/>
<path d="M624.943 481.882C628.12 481.882 630.696 479.196 630.696 475.883C630.696 472.571 628.12 469.885 624.943 469.885C621.766 469.885 619.191 472.571 619.191 475.883C619.191 479.196 621.766 481.882 624.943 481.882Z" fill="#636BFF"/>
<path d="M643.247 481.882C646.135 481.882 648.477 479.196 648.477 475.883C648.477 472.571 646.135 469.885 643.247 469.885C640.359 469.885 638.018 472.571 638.018 475.883C638.018 479.196 640.359 481.882 643.247 481.882Z" fill="#636BFF"/>
<path d="M299.874 663.317C299.874 663.976 300.429 664.506 301.119 664.506H559.767C560.457 664.506 561.012 663.976 561.012 663.317C561.012 662.997 560.886 662.717 560.677 662.507H466.836C464.839 662.507 462.883 662.377 460.958 662.127H301.119C300.429 662.127 299.874 662.657 299.874 663.317V663.317Z" fill="#3F3D56"/>
<path d="M174.911 452.833H318.903C343.297 452.833 363.073 471.735 363.073 495.053V605.459C363.073 628.776 343.297 647.678 318.903 647.678H174.911C150.517 647.678 130.741 628.776 130.741 605.458V495.053C130.741 471.735 150.517 452.833 174.911 452.833V452.833Z" fill="white"/>
<path d="M129.695 605.459V495.053C129.695 471.222 149.979 451.834 174.911 451.834H318.903C343.835 451.834 364.119 471.222 364.119 495.053V605.459C364.119 629.29 343.835 648.678 318.903 648.678H174.911C149.979 648.678 129.695 629.29 129.695 605.459V605.459ZM174.911 453.833C151.132 453.833 131.787 472.324 131.787 495.053V605.459C131.787 628.187 151.132 646.678 174.911 646.678H318.903C342.682 646.678 362.027 628.187 362.027 605.459V495.053C362.027 472.324 342.682 453.833 318.903 453.833H174.911Z" fill="#3F3D56"/>
<path d="M228.746 501.174H260.998L227.517 595.994C226.811 597.992 224.851 599.337 222.645 599.338H197.545C194.71 599.338 192.411 597.141 192.411 594.431C192.411 593.897 192.502 593.367 192.68 592.861L223.873 504.517C224.578 502.519 226.539 501.173 228.746 501.173V501.174L228.746 501.174H228.746Z" fill="url(#paint0_linear_7_1139)"/>
<path d="M275.613 564.773H224.469C223.161 564.771 222.1 565.783 222.099 567.033C222.098 567.661 222.371 568.262 222.852 568.691L255.716 598.01C256.673 598.863 257.933 599.338 259.241 599.338H288.201L275.613 564.773V564.773Z" fill="#0078D4"/>
<path d="M228.746 501.174C226.513 501.166 224.534 502.547 223.862 504.582L192.719 592.781C191.762 595.329 193.148 598.136 195.814 599.05C196.374 599.242 196.964 599.339 197.559 599.338H223.307C225.259 599.004 226.873 597.692 227.531 595.904L233.741 578.409L255.926 598.187C256.855 598.922 258.021 599.328 259.228 599.338H288.08L275.426 564.773L238.537 564.781L261.114 501.174H228.746L228.746 501.174L228.746 501.174Z" fill="url(#paint1_linear_7_1139)"/>
<path d="M269.94 504.512C269.235 502.517 267.277 501.173 265.074 501.174H229.13C231.333 501.174 233.291 502.517 233.995 504.512L265.189 592.86C266.096 595.429 264.653 598.214 261.966 599.081C261.437 599.252 260.882 599.339 260.324 599.339H296.27C299.106 599.338 301.404 597.139 301.403 594.428C301.403 593.895 301.312 593.365 301.134 592.86L269.94 504.512V504.512V504.512Z" fill="url(#paint2_linear_7_1139)"/>
<path d="M45.2156 255.937H189.208C213.602 255.937 233.377 274.839 233.377 298.157V408.562C233.377 431.88 213.602 450.782 189.208 450.782H45.2156C20.8214 450.782 1.04602 431.88 1.04602 408.562V298.157C1.04602 274.839 20.8214 255.937 45.2156 255.937V255.937V255.937Z" fill="white"/>
<path d="M0 408.562V298.157C0 274.326 20.2838 254.938 45.2155 254.938H189.208C214.139 254.938 234.423 274.326 234.423 298.157V408.562C234.423 432.394 214.139 451.781 189.208 451.781H45.2155C20.2838 451.781 0 432.394 0 408.562ZM45.2155 256.937C21.437 256.937 2.09186 275.428 2.09186 298.157V408.562C2.09186 431.291 21.437 449.782 45.2155 449.782H189.208C212.986 449.782 232.331 431.291 232.331 408.562V298.157C232.331 275.428 212.986 256.937 189.208 256.937H45.2155V256.937V256.937Z" fill="#3F3D56"/>
<path d="M88.4532 355.049C88.4532 356.599 88.6285 357.856 88.9354 358.778C89.2861 359.7 89.7244 360.705 90.3381 361.795C90.5573 362.13 90.645 362.465 90.645 362.759C90.645 363.178 90.382 363.597 89.8121 364.016L87.0504 365.775C86.6559 366.027 86.2613 366.153 85.9106 366.153C85.4723 366.153 85.0339 365.943 84.5955 365.566C83.9818 364.937 83.4558 364.267 83.0174 363.597C82.579 362.884 82.1407 362.088 81.6585 361.124C78.2392 364.979 73.9432 366.907 68.7705 366.907C65.0882 366.907 62.1511 365.901 60.0031 363.89C57.8551 361.879 56.7592 359.197 56.7592 355.845C56.7592 352.283 58.0743 349.392 60.7484 347.213C63.4224 345.034 66.9732 343.945 71.4883 343.945C72.9788 343.945 74.5131 344.071 76.135 344.28C77.757 344.49 79.4228 344.825 81.1763 345.202V342.143C81.1763 338.959 80.4749 336.738 79.1159 335.439C77.7132 334.14 75.346 333.511 71.9705 333.511C70.4363 333.511 68.8581 333.679 67.2362 334.056C65.6142 334.433 64.0361 334.894 62.5018 335.481C61.8004 335.774 61.2744 335.942 60.9675 336.025C60.6607 336.109 60.4415 336.151 60.2661 336.151C59.6524 336.151 59.3456 335.732 59.3456 334.852V332.799C59.3456 332.129 59.4332 331.626 59.6524 331.332C59.8716 331.039 60.2661 330.746 60.8798 330.453C62.4141 329.698 64.2553 329.07 66.4033 328.567C68.5513 328.022 70.8308 327.771 73.2418 327.771C78.4584 327.771 82.2722 328.902 84.727 331.165C87.138 333.428 88.3655 336.863 88.3655 341.473V355.049H88.4531L88.4532 355.049L88.4532 355.049ZM70.6555 361.418C72.1021 361.418 73.5925 361.166 75.1706 360.663C76.7488 360.161 78.1515 359.239 79.3351 357.982C80.0365 357.186 80.5626 356.306 80.8256 355.3C81.0886 354.295 81.2639 353.079 81.2639 351.655V349.895C79.9927 349.602 78.6337 349.35 77.231 349.183C75.8282 349.015 74.4692 348.931 73.1103 348.931C70.1733 348.931 68.0252 349.476 66.5786 350.607C65.132 351.739 64.4306 353.331 64.4306 355.426C64.4306 357.395 64.9567 358.862 66.0526 359.867C67.1047 360.915 68.639 361.418 70.6555 361.418L70.6554 361.418H70.6555ZM105.856 365.943C105.067 365.943 104.541 365.817 104.191 365.524C103.84 365.273 103.533 364.686 103.27 363.89L92.9683 331.5C92.7053 330.662 92.5738 330.117 92.5738 329.824C92.5738 329.154 92.9245 328.776 93.6259 328.776H97.9219C98.7548 328.776 99.3247 328.902 99.6315 329.196C99.9822 329.447 100.245 330.034 100.508 330.83L107.873 358.568L114.711 330.83C114.931 329.992 115.194 329.447 115.544 329.196C115.895 328.944 116.509 328.776 117.298 328.776H120.805C121.638 328.776 122.207 328.902 122.558 329.196C122.909 329.447 123.216 330.034 123.391 330.83L130.317 358.904L137.901 330.83C138.164 329.992 138.471 329.447 138.778 329.196C139.128 328.944 139.698 328.776 140.487 328.776H144.564C145.266 328.776 145.66 329.112 145.66 329.824C145.66 330.034 145.616 330.243 145.572 330.494C145.529 330.746 145.441 331.081 145.266 331.542L134.701 363.932C134.438 364.77 134.131 365.315 133.78 365.566C133.43 365.817 132.86 365.985 132.115 365.985H128.345C127.512 365.985 126.942 365.859 126.591 365.566C126.24 365.273 125.934 364.728 125.758 363.89L118.964 336.863L112.213 363.848C111.993 364.686 111.73 365.231 111.38 365.524C111.029 365.817 110.415 365.943 109.626 365.943H105.856L105.856 365.943H105.856ZM162.187 367.074C159.907 367.074 157.628 366.823 155.436 366.32C153.244 365.817 151.534 365.273 150.394 364.644C149.693 364.267 149.211 363.848 149.035 363.471C148.86 363.094 148.772 362.675 148.772 362.298V360.161C148.772 359.281 149.123 358.862 149.781 358.862C150.044 358.862 150.307 358.904 150.57 358.987C150.833 359.071 151.227 359.239 151.666 359.406C153.156 360.035 154.778 360.538 156.488 360.873C158.241 361.208 159.951 361.376 161.704 361.376C164.466 361.376 166.614 360.915 168.104 359.993C169.595 359.071 170.384 357.73 170.384 356.012C170.384 354.839 169.989 353.875 169.2 353.079C168.411 352.283 166.921 351.571 164.773 350.9L158.417 349.015C155.216 348.051 152.849 346.627 151.403 344.741C149.956 342.897 149.211 340.844 149.211 338.665C149.211 336.905 149.605 335.355 150.394 334.014C151.184 332.673 152.236 331.5 153.551 330.578C154.866 329.615 156.356 328.902 158.11 328.399C159.863 327.897 161.704 327.687 163.633 327.687C164.598 327.687 165.606 327.729 166.57 327.855C167.578 327.98 168.499 328.148 169.42 328.316C170.296 328.525 171.129 328.735 171.918 328.986C172.707 329.237 173.321 329.489 173.759 329.74C174.373 330.075 174.812 330.411 175.075 330.788C175.338 331.123 175.469 331.584 175.469 332.171V334.14C175.469 335.02 175.118 335.481 174.461 335.481C174.11 335.481 173.54 335.313 172.795 334.978C170.296 333.889 167.491 333.344 164.378 333.344C161.88 333.344 159.907 333.721 158.548 334.517C157.189 335.313 156.488 336.528 156.488 338.246C156.488 339.419 156.926 340.425 157.803 341.221C158.68 342.017 160.302 342.814 162.625 343.526L168.85 345.411C172.006 346.375 174.286 347.716 175.644 349.434C177.003 351.152 177.661 353.121 177.661 355.3C177.661 357.102 177.266 358.736 176.521 360.161C175.732 361.585 174.68 362.842 173.321 363.848C171.962 364.896 170.34 365.65 168.455 366.195C166.483 366.781 164.422 367.074 162.187 367.074H162.186L162.187 367.074Z" fill="#252F3E"/>
<path fill-rule="evenodd" clip-rule="evenodd" d="M170.472 387.439C156.049 397.621 135.095 403.026 117.079 403.026C91.8286 403.026 69.0773 394.101 51.8934 379.268C50.5344 378.095 51.7618 376.502 53.3838 377.424C71.9706 387.732 94.8972 393.975 118.613 393.975C134.613 393.975 152.192 390.791 168.368 384.254C170.779 383.207 172.839 385.762 170.472 387.439L170.472 387.439V387.439Z" fill="#FF9900"/>
<path fill-rule="evenodd" clip-rule="evenodd" d="M176.477 380.902C174.636 378.639 164.291 379.812 159.6 380.357C158.197 380.525 157.978 379.352 159.249 378.472C167.491 372.941 181.036 374.533 182.614 376.377C184.193 378.262 182.176 391.21 174.461 397.411C173.277 398.375 172.137 397.872 172.663 396.615C174.417 392.467 178.318 383.123 176.477 380.902H176.477H176.477Z" fill="#FF9900"/>
<path d="M448.108 280.422C447.062 279.422 438.695 258.428 438.695 258.428L418.822 257.428L409.73 277.919L448.108 280.422Z" fill="#FFB6B6"/>
<path d="M419.914 267.1C434.688 267.1 446.664 255.652 446.664 241.531C446.664 227.41 434.688 215.962 419.914 215.962C405.141 215.962 393.164 227.41 393.164 241.531C393.164 255.652 405.141 267.1 419.914 267.1Z" fill="#FFB6B6"/>
<path d="M470.596 418.888L480.009 448.881L454.907 622.838H437.913L428.759 491.87L418.299 536.859L471.642 601.843L458.045 616.84L381.169 545.357L382.738 434.884L389.013 417.888L470.596 418.888Z" fill="#2F2E41"/>
<path d="M442.341 262.536L440.252 262.634C440.252 262.634 438.383 246.707 437.287 245.757C436.191 244.808 434.205 246.903 434.205 246.903C434.205 246.903 425.59 242.304 425.333 237.311C425.075 232.319 424.87 228.325 421.736 228.472C418.602 228.62 401.048 233.45 396.87 233.647C392.691 233.844 386.063 227.149 393.067 220.813C400.07 214.478 406.235 212.186 407.229 211.138C408.222 210.09 414.761 205.778 420.474 209.513C426.187 213.248 433.5 212.904 433.5 212.904C433.5 212.904 447.235 215.26 445.454 221.349C443.674 227.439 450.559 239.126 447.734 245.265C444.909 251.404 442.341 262.536 442.341 262.536L442.341 262.536V262.536Z" fill="#2F2E41"/>
<path d="M437.126 619.839L455.953 621.838L458.045 654.83C458.045 654.83 456.999 670.826 439.218 668.827C421.437 666.827 426.667 650.831 426.667 650.831L437.126 619.839Z" fill="#1A001E"/>
<path d="M461.705 596.345C461.705 596.345 475.303 590.346 477.394 597.344L481.578 611.341C481.578 611.341 481.578 625.338 482.624 626.337C483.67 627.337 503.543 653.331 485.762 667.327C485.762 667.327 476.348 668.327 471.119 654.331C465.889 640.334 450.2 626.337 450.2 626.337C450.2 626.337 447.161 619.339 452.341 619.839C457.522 620.339 464.843 608.342 462.751 604.343C460.659 600.344 461.705 596.345 461.705 596.345Z" fill="#2F2E41"/>
<path d="M289.021 465.731C284.154 463.772 282.821 456.259 286.042 448.948C287.287 446.011 289.25 443.401 291.767 441.337L295.526 433.096L295.391 433.009L306.199 391.837C308.712 382.264 315.631 374.187 325.133 370.325C330.786 368.027 336.15 367.611 337.709 373.117C340.297 382.252 323.441 411.68 313.277 428.236L305.358 446.809C305.572 449.973 304.99 453.14 303.661 456.044C300.442 463.354 293.887 467.69 289.021 465.731V465.731V465.731Z" fill="#FFB6B6"/>
<path d="M410.455 274.424L444.971 275.423L478.44 289.42L473.211 372.4C473.211 372.4 479.486 391.395 476.349 394.394C473.211 397.394 476.349 410.839 474.257 411.115C472.165 411.39 474.257 425.851 474.257 425.851C474.257 425.851 444.971 416.389 419.868 422.387C394.766 428.386 386.399 418.388 386.399 418.388C386.399 418.388 380.123 394.394 380.123 389.395V287.176L410.455 274.424Z" fill="#636BFF"/>
<path d="M385.875 286.921C385.875 286.921 371.232 282.922 363.911 292.919C356.589 302.917 352.406 302.917 352.406 315.913C352.406 315.913 309.523 373.899 311.614 379.898L301.678 395.394L326.78 408.391C326.78 408.391 335.671 399.893 335.671 391.895C335.671 383.897 360.773 361.902 360.773 361.902C360.773 361.902 382.738 334.909 383.784 324.911C384.83 314.914 385.875 286.921 385.875 286.921Z" fill="#5C63F4"/>
<path d="M514.838 470.829H658.83C683.225 470.829 703 489.731 703 513.048V623.454C703 646.771 683.225 665.674 658.831 665.674H514.838C490.444 665.674 470.669 646.771 470.669 623.454V513.048C470.669 489.731 490.444 470.829 514.838 470.829V470.829Z" fill="white"/>
<path d="M468.577 622.455V512.049C468.577 488.218 488.861 468.83 513.792 468.83H657.784C682.716 468.83 703 488.218 703 512.049V622.455C703 646.286 682.716 665.674 657.784 665.674H513.792C488.861 665.674 468.577 646.286 468.577 622.455V622.455ZM513.792 470.829C490.014 470.829 470.669 489.32 470.669 512.049V622.455C470.669 645.184 490.014 663.674 513.792 663.674H657.784C681.563 663.674 700.908 645.184 700.908 622.455V512.049C700.908 489.32 681.563 470.829 657.784 470.829H513.792V470.829Z" fill="#3F3D56"/>
<path d="M605.163 548.022H608.716L618.843 538.342L619.34 534.232C600.493 518.332 571.73 520.046 555.095 538.061C550.474 543.065 547.12 549.018 545.292 555.46C546.42 555.018 547.669 554.946 548.845 555.256L569.098 552.063C569.098 552.063 570.129 550.433 570.662 550.535C579.671 541.077 594.832 539.975 605.234 548.022H605.163V548.022V548.022Z" fill="#EA4335"/>
<path d="M633.269 555.46C630.941 547.266 626.162 539.901 619.518 534.266L605.305 547.852C611.307 552.539 614.725 559.6 614.579 567.007V569.419C621.565 569.419 627.229 574.832 627.229 581.51C627.229 588.187 621.565 593.6 614.579 593.6H589.28L586.758 596.046V610.548L589.28 612.96H614.579C632.75 613.095 647.595 599.124 647.737 581.755C647.823 571.228 642.392 561.358 633.269 555.46V555.46V555.46Z" fill="#4285F4"/>
<path d="M563.946 612.824H589.245V593.465H563.946C562.144 593.464 560.362 593.094 558.723 592.378L555.17 593.431L544.972 603.11L544.084 606.507C549.802 610.634 556.78 612.853 563.946 612.824V612.824Z" fill="#34A853"/>
<path d="M563.946 550.025C545.775 550.129 531.132 564.294 531.24 581.663C531.301 591.362 536.04 600.492 544.084 606.405L558.758 592.378C552.392 589.628 549.563 582.466 552.439 576.381C555.315 570.296 562.808 567.591 569.175 570.341C571.98 571.552 574.227 573.7 575.494 576.381L590.169 562.354C583.925 554.552 574.223 549.99 563.946 550.025L563.946 550.025V550.025Z" fill="#FBBC05"/>
<path d="M499.446 488.354C504.719 488.09 508.641 481.456 508.206 473.533C508.078 470.366 507.158 467.275 505.524 464.517L504.914 455.546L505.071 455.508L509.524 413.273C510.559 403.453 506.919 393.611 499.352 386.895C494.851 382.9 489.953 380.769 486.531 385.442C480.853 393.196 486.261 426.345 489.943 445.216L490.797 465.255C489.472 468.162 488.895 471.329 489.113 474.493C489.547 482.412 494.173 488.618 499.446 488.354V488.354V488.354Z" fill="#FFB6B6"/>
<path d="M471.829 288.736C471.829 288.736 487.023 289.725 490.36 301.504C493.697 313.283 497.633 314.641 493.018 326.866C493.018 326.866 512.767 395.322 508.669 400.286L512.514 418.086L484.287 422.168C484.287 422.168 478.941 411.29 481.781 403.767C484.621 396.243 468.818 367.411 468.818 367.411C468.818 367.411 457.742 334.894 460.308 325.151C462.874 315.407 471.829 288.736 471.829 288.736V288.736V288.736Z" fill="#636BFF"/>
</g>
<defs>
<linearGradient id="paint0_linear_7_1139" x1="240.5" y1="508.448" x2="209.624" y2="603.877" gradientUnits="userSpaceOnUse">
<stop stop-color="#114A8B"/>
<stop offset="1" stop-color="#0669BC"/>
</linearGradient>
<linearGradient id="paint1_linear_7_1139" x1="250.963" y1="552.525" x2="243.29" y2="555.239" gradientUnits="userSpaceOnUse">
<stop stop-opacity="0.3"/>
<stop offset="0.071" stop-opacity="0.2"/>
<stop offset="0.321" stop-opacity="0.1"/>
<stop offset="0.623" stop-opacity="0.05"/>
<stop offset="1" stop-opacity="0"/>
</linearGradient>
<linearGradient id="paint2_linear_7_1139" x1="246.943" y1="505.603" x2="280.897" y2="600.241" gradientUnits="userSpaceOnUse">
<stop stop-color="#3CCBF4"/>
<stop offset="1" stop-color="#2892DF"/>
</linearGradient>
<clipPath id="clip0_7_1139">
<rect width="703" height="669" fill="white"/>
</clipPath>
</defs>
</svg>
